<?xml version="1.0" encoding="UTF-8" standalone="no"?><svg xmlns="http://www.w3.org/2000/svg" xmlns:xlink="http://www.w3.org/1999/xlink" contentScriptType="application/ecmascript" contentStyleType="text/css" height="977px" preserveAspectRatio="none" style="width:1794px;height:977px;background:#FAFAFA;" version="1.1" viewBox="0 0 1794 977" width="1794px" zoomAndPan="magnify"><defs><filter height="300%" id="f1ushwfyw8kx34" width="300%" x="-1" y="-1"><feGaussianBlur result="blurOut" stdDeviation="2.0"/><feColorMatrix in="blurOut" result="blurOut2" type="matrix" values="0 0 0 0 0 0 0 0 0 0 0 0 0 0 0 0 0 0 .4 0"/><feOffset dx="4.0" dy="4.0" in="blurOut2" result="blurOut3"/><feBlend in="SourceGraphic" in2="blurOut3" mode="normal"/></filter></defs><g><text fill="#000000" font-family="sans-serif" font-size="18" lengthAdjust="spacingAndGlyphs" textLength="341" x="729.5" y="16.708">C4 Level 4 — RBAC Middleware Chain</text><text fill="#000000" font-family="sans-serif" font-size="18" lengthAdjust="spacingAndGlyphs" textLength="359" x="720.5" y="37.6611">(ASR-SEC-05, ASR-SEC-08, ASR-SEC-15)</text><!--MD5=[96871abfc5b7d99be6c289cfb31f6182]
class RL--><rect fill="#DDEEFF" filter="url(#f1ushwfyw8kx34)" height="125.9609" id="RL" style="stroke: #336699; stroke-width: 1.5;" width="253" x="1299" y="49.9063"/><ellipse cx="1365.75" cy="68.875" fill="#ADD1B2" rx="11" ry="11" style="stroke: #336699; stroke-width: 1.0;"/><path d="M1368.7188,74.5156 Q1368.1406,74.8125 1367.5,74.9531 Q1366.8594,75.1094 1366.1563,75.1094 Q1363.6563,75.1094 1362.3281,73.4688 Q1361.0156,71.8125 1361.0156,68.6875 Q1361.0156,65.5625 1362.3281,63.9063 Q1363.6563,62.25 1366.1563,62.25 Q1366.8594,62.25 1367.5,62.4063 Q1368.1563,62.5625 1368.7188,62.8594 L1368.7188,65.5781 Q1368.0938,65 1367.5,64.7344 Q1366.9063,64.4531 1366.2813,64.4531 Q1364.9375,64.4531 1364.25,65.5313 Q1363.5625,66.5938 1363.5625,68.6875 Q1363.5625,70.7813 1364.25,71.8594 Q1364.9375,72.9219 1366.2813,72.9219 Q1366.9063,72.9219 1367.5,72.6563 Q1368.0938,72.375 1368.7188,71.7969 L1368.7188,74.5156 Z "/><text fill="#000000" font-family="Arial" font-size="12" lengthAdjust="spacingAndGlyphs" textLength="101" x="1391.25" y="66.0449">rateLimiter(rule)</text><text fill="#000000" font-family="Arial" font-size="12" lengthAdjust="spacingAndGlyphs" textLength="111" x="1386.25" y="80.0137">&lt;&lt;middleware&gt;&gt;</text><line style="stroke: #336699; stroke-width: 1.5;" x1="1300" x2="1551" y1="87.8438" y2="87.8438"/><text fill="#000000" font-family="sans-serif" font-size="11" lengthAdjust="spacingAndGlyphs" textLength="241" x="1305" y="102.0542">rule: { endpoint, rate_limit: {time, limit} }</text><line style="stroke: #336699; stroke-width: 1.0; stroke-dasharray: 1.0,2.0;" x1="1300" x2="1551" y1="108.6484" y2="108.6484"/><text fill="#000000" font-family="sans-serif" font-size="11" lengthAdjust="spacingAndGlyphs" textLength="124" x="1305" y="122.8589">handle(req, res, next)</text><line style="stroke: #336699; stroke-width: 1.0;" x1="1300" x2="1551" y1="129.4531" y2="129.4531"/><text fill="#000000" font-family="sans-serif" font-size="11" lengthAdjust="spacingAndGlyphs" textLength="185" x="1305" y="143.6636">redisClient.incr(endpoint+"/"+ip)</text><text fill="#000000" font-family="sans-serif" font-size="11" lengthAdjust="spacingAndGlyphs" textLength="160" x="1305" y="156.4683">redisClient.expire(key, time)</text><text fill="#000000" font-family="sans-serif" font-size="11" lengthAdjust="spacingAndGlyphs" textLength="152" x="1305" y="169.2729">count &gt; limit =&gt; HTTP 429</text><!--MD5=[c4e81b8da2ffff74144e05951ac0826e]
class ZOD--><rect fill="#DDEEFF" filter="url(#f1ushwfyw8kx34)" height="125.9609" id="ZOD" style="stroke: #336699; stroke-width: 1.5;" width="193" x="1231" y="252.9063"/><ellipse cx="1250.95" cy="271.875" fill="#ADD1B2" rx="11" ry="11" style="stroke: #336699; stroke-width: 1.0;"/><path d="M1253.9188,277.5156 Q1253.3406,277.8125 1252.7,277.9531 Q1252.0594,278.1094 1251.3563,278.1094 Q1248.8563,278.1094 1247.5281,276.4688 Q1246.2156,274.8125 1246.2156,271.6875 Q1246.2156,268.5625 1247.5281,266.9063 Q1248.8563,265.25 1251.3563,265.25 Q1252.0594,265.25 1252.7,265.4063 Q1253.3563,265.5625 1253.9188,265.8594 L1253.9188,268.5781 Q1253.2938,268 1252.7,267.7344 Q1252.1063,267.4531 1251.4813,267.4531 Q1250.1375,267.4531 1249.45,268.5313 Q1248.7625,269.5938 1248.7625,271.6875 Q1248.7625,273.7813 1249.45,274.8594 Q1250.1375,275.9219 1251.4813,275.9219 Q1252.1063,275.9219 1252.7,275.6563 Q1253.2938,275.375 1253.9188,274.7969 L1253.9188,277.5156 Z "/><text fill="#000000" font-family="Arial" font-size="12" lengthAdjust="spacingAndGlyphs" textLength="138" x="1272.05" y="269.0449">validateBody(schema)</text><text fill="#000000" font-family="Arial" font-size="12" lengthAdjust="spacingAndGlyphs" textLength="150" x="1266.05" y="283.0137">&lt;&lt;middleware&gt;&gt; [Zod]</text><line style="stroke: #336699; stroke-width: 1.5;" x1="1232" x2="1423" y1="290.8438" y2="290.8438"/><text fill="#000000" font-family="sans-serif" font-size="11" lengthAdjust="spacingAndGlyphs" textLength="122" x="1237" y="305.0542">schema: ZodSchema</text><line style="stroke: #336699; stroke-width: 1.0; stroke-dasharray: 1.0,2.0;" x1="1232" x2="1423" y1="311.6484" y2="311.6484"/><text fill="#000000" font-family="sans-serif" font-size="11" lengthAdjust="spacingAndGlyphs" textLength="124" x="1237" y="325.8589">handle(req, res, next)</text><line style="stroke: #336699; stroke-width: 1.0;" x1="1232" x2="1423" y1="332.4531" y2="332.4531"/><text fill="#000000" font-family="sans-serif" font-size="11" lengthAdjust="spacingAndGlyphs" textLength="165" x="1237" y="346.6636">schema.safeParse(req.body)</text><text fill="#000000" font-family="sans-serif" font-size="11" lengthAdjust="spacingAndGlyphs" textLength="181" x="1237" y="359.4683">error =&gt; HTTP 400 + zodErrors</text><text fill="#000000" font-family="sans-serif" font-size="11" lengthAdjust="spacingAndGlyphs" textLength="180" x="1237" y="372.2729">success =&gt; req.body = parsed</text><!--MD5=[93c3adae85a88d7908778c3ef9c6a729]
class AM--><rect fill="#DDEEFF" filter="url(#f1ushwfyw8kx34)" height="130.7656" id="AM" style="stroke: #336699; stroke-width: 1.5;" width="255" x="893" y="455.9063"/><ellipse cx="908" cy="474.875" fill="#ADD1B2" rx="11" ry="11" style="stroke: #336699; stroke-width: 1.0;"/><path d="M910.9688,480.5156 Q910.3906,480.8125 909.75,480.9531 Q909.1094,481.1094 908.4063,481.1094 Q905.9063,481.1094 904.5781,479.4688 Q903.2656,477.8125 903.2656,474.6875 Q903.2656,471.5625 904.5781,469.9063 Q905.9063,468.25 908.4063,468.25 Q909.1094,468.25 909.75,468.4063 Q910.4063,468.5625 910.9688,468.8594 L910.9688,471.5781 Q910.3438,471 909.75,470.7344 Q909.1563,470.4531 908.5313,470.4531 Q907.1875,470.4531 906.5,471.5313 Q905.8125,472.5938 905.8125,474.6875 Q905.8125,476.7813 906.5,477.8594 Q907.1875,478.9219 908.5313,478.9219 Q909.1563,478.9219 909.75,478.6563 Q910.3438,478.375 910.9688,477.7969 L910.9688,480.5156 Z "/><text fill="#000000" font-family="Arial" font-size="12" lengthAdjust="spacingAndGlyphs" textLength="223" x="922" y="472.0449">AuthMiddleware.authenticateUser()</text><text fill="#000000" font-family="Arial" font-size="12" lengthAdjust="spacingAndGlyphs" textLength="111" x="978" y="486.0137">&lt;&lt;middleware&gt;&gt;</text><line style="stroke: #336699; stroke-width: 1.5;" x1="894" x2="1147" y1="493.8438" y2="493.8438"/><text fill="#000000" font-family="sans-serif" font-size="11" lengthAdjust="spacingAndGlyphs" textLength="124" x="899" y="508.0542">handle(req, res, next)</text><line style="stroke: #336699; stroke-width: 1.0;" x1="894" x2="1147" y1="514.6484" y2="514.6484"/><text fill="#000000" font-family="sans-serif" font-size="11" lengthAdjust="spacingAndGlyphs" textLength="197" x="899" y="528.8589">cookie = req.cookies.accessToken</text><text fill="#000000" font-family="sans-serif" font-size="11" lengthAdjust="spacingAndGlyphs" textLength="134" x="899" y="541.6636">no cookie =&gt; HTTP 401</text><text fill="#000000" font-family="sans-serif" font-size="11" lengthAdjust="spacingAndGlyphs" textLength="204" x="899" y="554.4683">decoded = jwt.verify(cookie, secret)</text><text fill="#000000" font-family="sans-serif" font-size="11" lengthAdjust="spacingAndGlyphs" textLength="164" x="899" y="567.2729">req.userId = decoded.userId</text><text fill="#000000" font-family="sans-serif" font-size="11" lengthAdjust="spacingAndGlyphs" textLength="32" x="899" y="580.0776">next()</text><!--MD5=[034d98de51a75a90980fea5a350628d3]
class RA--><rect fill="#DDEEFF" filter="url(#f1ushwfyw8kx34)" height="143.5703" id="RA" style="stroke: #336699; stroke-width: 1.5;" width="311" x="6" y="663.9063"/><ellipse cx="59.25" cy="682.875" fill="#ADD1B2" rx="11" ry="11" style="stroke: #336699; stroke-width: 1.0;"/><path d="M62.2188,688.5156 Q61.6406,688.8125 61,688.9531 Q60.3594,689.1094 59.6563,689.1094 Q57.1563,689.1094 55.8281,687.4688 Q54.5156,685.8125 54.5156,682.6875 Q54.5156,679.5625 55.8281,677.9063 Q57.1563,676.25 59.6563,676.25 Q60.3594,676.25 61,676.4063 Q61.6563,676.5625 62.2188,676.8594 L62.2188,679.5781 Q61.5938,679 61,678.7344 Q60.4063,678.4531 59.7813,678.4531 Q58.4375,678.4531 57.75,679.5313 Q57.0625,680.5938 57.0625,682.6875 Q57.0625,684.7813 57.75,685.8594 Q58.4375,686.9219 59.7813,686.9219 Q60.4063,686.9219 61,686.6563 Q61.5938,686.375 62.2188,685.7969 L62.2188,688.5156 Z "/><text fill="#000000" font-family="Arial" font-size="12" lengthAdjust="spacingAndGlyphs" textLength="196" x="79.75" y="680.0449">AuthMiddleware.requireAdmin()</text><text fill="#000000" font-family="Arial" font-size="12" lengthAdjust="spacingAndGlyphs" textLength="111" x="122.25" y="694.0137">&lt;&lt;middleware&gt;&gt;</text><line style="stroke: #336699; stroke-width: 1.5;" x1="7" x2="316" y1="701.8438" y2="701.8438"/><text fill="#000000" font-family="sans-serif" font-size="11" lengthAdjust="spacingAndGlyphs" textLength="124" x="12" y="716.0542">handle(req, res, next)</text><line style="stroke: #336699; stroke-width: 1.0;" x1="7" x2="316" y1="722.6484" y2="722.6484"/><text fill="#000000" font-family="sans-serif" font-size="11" lengthAdjust="spacingAndGlyphs" textLength="112" x="12" y="736.8589">userId = req.userId</text><text fill="#000000" font-family="sans-serif" font-size="11" lengthAdjust="spacingAndGlyphs" textLength="138" x="12" y="749.6636">not userId =&gt; HTTP 401</text><text fill="#000000" font-family="sans-serif" font-size="11" lengthAdjust="spacingAndGlyphs" textLength="221" x="12" y="762.4683">user = prisma.user.findUnique(userId)</text><text fill="#000000" font-family="sans-serif" font-size="11" lengthAdjust="spacingAndGlyphs" textLength="299" x="12" y="775.2729">role != ADMIN =&gt; writeAuditLog(DENIED) + HTTP 403</text><text fill="#000000" font-family="sans-serif" font-size="11" lengthAdjust="spacingAndGlyphs" textLength="137" x="12" y="788.0776">writeAuditLog(GRANTED)</text><text fill="#000000" font-family="sans-serif" font-size="11" lengthAdjust="spacingAndGlyphs" textLength="32" x="12" y="800.8823">next()</text><!--MD5=[f8f50cc6755bc0171a39b8bb3a920cbb]
class RT--><rect fill="#DDEEFF" filter="url(#f1ushwfyw8kx34)" height="105.1563" id="RT" style="stroke: #336699; stroke-width: 1.5;" width="264" x="738.5" y="683.4063"/><ellipse cx="763.85" cy="702.375" fill="#ADD1B2" rx="11" ry="11" style="stroke: #336699; stroke-width: 1.0;"/><path d="M766.8188,708.0156 Q766.2406,708.3125 765.6,708.4531 Q764.9594,708.6094 764.2563,708.6094 Q761.7563,708.6094 760.4281,706.9688 Q759.1156,705.3125 759.1156,702.1875 Q759.1156,699.0625 760.4281,697.4063 Q761.7563,695.75 764.2563,695.75 Q764.9594,695.75 765.6,695.9063 Q766.2563,696.0625 766.8188,696.3594 L766.8188,699.0781 Q766.1938,698.5 765.6,698.2344 Q765.0063,697.9531 764.3813,697.9531 Q763.0375,697.9531 762.35,699.0313 Q761.6625,700.0938 761.6625,702.1875 Q761.6625,704.2813 762.35,705.3594 Q763.0375,706.4219 764.3813,706.4219 Q765.0063,706.4219 765.6,706.1563 Q766.1938,705.875 766.8188,705.2969 L766.8188,708.0156 Z "/><text fill="#000000" font-family="Arial" font-size="12" lengthAdjust="spacingAndGlyphs" textLength="209" x="780.15" y="699.5449">AuthMiddleware.requireTeacher()</text><text fill="#000000" font-family="Arial" font-size="12" lengthAdjust="spacingAndGlyphs" textLength="111" x="829.15" y="713.5137">&lt;&lt;middleware&gt;&gt;</text><line style="stroke: #336699; stroke-width: 1.5;" x1="739.5" x2="1001.5" y1="721.3438" y2="721.3438"/><text fill="#000000" font-family="sans-serif" font-size="11" lengthAdjust="spacingAndGlyphs" textLength="124" x="744.5" y="735.5542">handle(req, res, next)</text><line style="stroke: #336699; stroke-width: 1.0;" x1="739.5" x2="1001.5" y1="742.1484" y2="742.1484"/><text fill="#000000" font-family="sans-serif" font-size="11" lengthAdjust="spacingAndGlyphs" textLength="221" x="744.5" y="756.3589">user = prisma.user.findUnique(userId)</text><text fill="#000000" font-family="sans-serif" font-size="11" lengthAdjust="spacingAndGlyphs" textLength="252" x="744.5" y="769.1636">role != TEACHER &amp;&amp; != ADMIN =&gt; HTTP 403</text><text fill="#000000" font-family="sans-serif" font-size="11" lengthAdjust="spacingAndGlyphs" textLength="32" x="744.5" y="781.9683">next()</text><!--MD5=[5d34c01a8296ea2c0dac42f422676877]
class RS--><rect fill="#DDEEFF" filter="url(#f1ushwfyw8kx34)" height="105.1563" id="RS" style="stroke: #336699; stroke-width: 1.5;" width="266" x="1037.5" y="683.4063"/><ellipse cx="1064.2" cy="702.375" fill="#ADD1B2" rx="11" ry="11" style="stroke: #336699; stroke-width: 1.0;"/><path d="M1067.1688,708.0156 Q1066.5906,708.3125 1065.95,708.4531 Q1065.3094,708.6094 1064.6063,708.6094 Q1062.1063,708.6094 1060.7781,706.9688 Q1059.4656,705.3125 1059.4656,702.1875 Q1059.4656,699.0625 1060.7781,697.4063 Q1062.1063,695.75 1064.6063,695.75 Q1065.3094,695.75 1065.95,695.9063 Q1066.6063,696.0625 1067.1688,696.3594 L1067.1688,699.0781 Q1066.5438,698.5 1065.95,698.2344 Q1065.3563,697.9531 1064.7313,697.9531 Q1063.3875,697.9531 1062.7,699.0313 Q1062.0125,700.0938 1062.0125,702.1875 Q1062.0125,704.2813 1062.7,705.3594 Q1063.3875,706.4219 1064.7313,706.4219 Q1065.3563,706.4219 1065.95,706.1563 Q1066.5438,705.875 1067.1688,705.2969 L1067.1688,708.0156 Z "/><text fill="#000000" font-family="Arial" font-size="12" lengthAdjust="spacingAndGlyphs" textLength="208" x="1080.8" y="699.5449">AuthMiddleware.requireStudent()</text><text fill="#000000" font-family="Arial" font-size="12" lengthAdjust="spacingAndGlyphs" textLength="111" x="1129.3" y="713.5137">&lt;&lt;middleware&gt;&gt;</text><line style="stroke: #336699; stroke-width: 1.5;" x1="1038.5" x2="1302.5" y1="721.3438" y2="721.3438"/><text fill="#000000" font-family="sans-serif" font-size="11" lengthAdjust="spacingAndGlyphs" textLength="124" x="1043.5" y="735.5542">handle(req, res, next)</text><line style="stroke: #336699; stroke-width: 1.0;" x1="1038.5" x2="1302.5" y1="742.1484" y2="742.1484"/><text fill="#000000" font-family="sans-serif" font-size="11" lengthAdjust="spacingAndGlyphs" textLength="221" x="1043.5" y="756.3589">user = prisma.user.findUnique(userId)</text><text fill="#000000" font-family="sans-serif" font-size="11" lengthAdjust="spacingAndGlyphs" textLength="254" x="1043.5" y="769.1636">role != STUDENT &amp;&amp; != ADMIN =&gt; HTTP 403</text><text fill="#000000" font-family="sans-serif" font-size="11" lengthAdjust="spacingAndGlyphs" textLength="32" x="1043.5" y="781.9683">next()</text><!--MD5=[45031deb39277c774d87f735cec75595]
class CTRL--><rect fill="#DDEEFF" filter="url(#f1ushwfyw8kx34)" height="117.9609" id="CTRL" style="stroke: #336699; stroke-width: 1.5;" width="223" x="1339" y="676.9063"/><ellipse cx="1368.85" cy="695.875" fill="#ADD1B2" rx="11" ry="11" style="stroke: #336699; stroke-width: 1.0;"/><path d="M1371.8188,701.5156 Q1371.2406,701.8125 1370.6,701.9531 Q1369.9594,702.1094 1369.2563,702.1094 Q1366.7563,702.1094 1365.4281,700.4688 Q1364.1156,698.8125 1364.1156,695.6875 Q1364.1156,692.5625 1365.4281,690.9063 Q1366.7563,689.25 1369.2563,689.25 Q1369.9594,689.25 1370.6,689.4063 Q1371.2563,689.5625 1371.8188,689.8594 L1371.8188,692.5781 Q1371.1938,692 1370.6,691.7344 Q1370.0063,691.4531 1369.3813,691.4531 Q1368.0375,691.4531 1367.35,692.5313 Q1366.6625,693.5938 1366.6625,695.6875 Q1366.6625,697.7813 1367.35,698.8594 Q1368.0375,699.9219 1369.3813,699.9219 Q1370.0063,699.9219 1370.6,699.6563 Q1371.1938,699.375 1371.8188,698.7969 L1371.8188,701.5156 Z "/><text fill="#000000" font-family="Arial" font-size="12" lengthAdjust="spacingAndGlyphs" textLength="112" x="1409.15" y="693.0449">Domain Controller</text><text fill="#000000" font-family="Arial" font-size="12" lengthAdjust="spacingAndGlyphs" textLength="158" x="1386.15" y="707.0137">(Courses, Materials, etc.)</text><line style="stroke: #336699; stroke-width: 1.5;" x1="1340" x2="1561" y1="714.8438" y2="714.8438"/><text fill="#000000" font-family="sans-serif" font-size="11" lengthAdjust="spacingAndGlyphs" textLength="97" x="1345" y="729.0542">handler(req, res)</text><line style="stroke: #336699; stroke-width: 1.0;" x1="1340" x2="1561" y1="735.6484" y2="735.6484"/><text fill="#000000" font-family="sans-serif" font-size="11" lengthAdjust="spacingAndGlyphs" textLength="211" x="1345" y="749.8589">req.userId    set by authenticateUser</text><text fill="#000000" font-family="sans-serif" font-size="11" lengthAdjust="spacingAndGlyphs" textLength="169" x="1345" y="762.6636">req.body      validated by Zod</text><text fill="#000000" font-family="sans-serif" font-size="11" lengthAdjust="spacingAndGlyphs" textLength="82" x="1345" y="775.4683">business logic</text><text fill="#000000" font-family="sans-serif" font-size="11" lengthAdjust="spacingAndGlyphs" textLength="155" x="1345" y="788.2729">prisma query (ASR-SEC-09)</text><!--MD5=[4f5b670af930b5244dcb7fc0e9dc6959]
class PG--><rect fill="#DDEEFF" filter="url(#f1ushwfyw8kx34)" height="66.7422" id="PG" style="stroke: #336699; stroke-width: 1.5;" width="134" x="952.5" y="899.9063"/><ellipse cx="979.65" cy="918.875" fill="#ADD1B2" rx="11" ry="11" style="stroke: #336699; stroke-width: 1.0;"/><path d="M982.6188,924.5156 Q982.0406,924.8125 981.4,924.9531 Q980.7594,925.1094 980.0563,925.1094 Q977.5563,925.1094 976.2281,923.4688 Q974.9156,921.8125 974.9156,918.6875 Q974.9156,915.5625 976.2281,913.9063 Q977.5563,912.25 980.0563,912.25 Q980.7594,912.25 981.4,912.4063 Q982.0563,912.5625 982.6188,912.8594 L982.6188,915.5781 Q981.9938,915 981.4,914.7344 Q980.8063,914.4531 980.1813,914.4531 Q978.8375,914.4531 978.15,915.5313 Q977.4625,916.5938 977.4625,918.6875 Q977.4625,920.7813 978.15,921.8594 Q978.8375,922.9219 980.1813,922.9219 Q980.8063,922.9219 981.4,922.6563 Q981.9938,922.375 982.6188,921.7969 L982.6188,924.5156 Z "/><text fill="#000000" font-family="Arial" font-size="12" lengthAdjust="spacingAndGlyphs" textLength="72" x="997.85" y="916.0449">PostgreSQL</text><text fill="#000000" font-family="Arial" font-size="12" lengthAdjust="spacingAndGlyphs" textLength="75" x="996.35" y="930.0137">(User table)</text><line style="stroke: #336699; stroke-width: 1.5;" x1="953.5" x2="1085.5" y1="937.8438" y2="937.8438"/><line style="stroke: #336699; stroke-width: 1.5;" x1="953.5" x2="1085.5" y1="945.8438" y2="945.8438"/><text fill="#000000" font-family="sans-serif" font-size="11" lengthAdjust="spacingAndGlyphs" textLength="122" x="958.5" y="960.0542">findUnique(id): {role}</text><!--MD5=[475e6a43f95160b7812f37f7d13301e9]
class RD--><rect fill="#DDEEFF" filter="url(#f1ushwfyw8kx34)" height="66.7422" id="RD" style="stroke: #336699; stroke-width: 1.5;" width="128" x="1459.5" y="282.4063"/><ellipse cx="1474.5" cy="301.375" fill="#ADD1B2" rx="11" ry="11" style="stroke: #336699; stroke-width: 1.0;"/><path d="M1477.4688,307.0156 Q1476.8906,307.3125 1476.25,307.4531 Q1475.6094,307.6094 1474.9063,307.6094 Q1472.4063,307.6094 1471.0781,305.9688 Q1469.7656,304.3125 1469.7656,301.1875 Q1469.7656,298.0625 1471.0781,296.4063 Q1472.4063,294.75 1474.9063,294.75 Q1475.6094,294.75 1476.25,294.9063 Q1476.9063,295.0625 1477.4688,295.3594 L1477.4688,298.0781 Q1476.8438,297.5 1476.25,297.2344 Q1475.6563,296.9531 1475.0313,296.9531 Q1473.6875,296.9531 1473,298.0313 Q1472.3125,299.0938 1472.3125,301.1875 Q1472.3125,303.2813 1473,304.3594 Q1473.6875,305.4219 1475.0313,305.4219 Q1475.6563,305.4219 1476.25,305.1563 Q1476.8438,304.875 1477.4688,304.2969 L1477.4688,307.0156 Z "/><text fill="#000000" font-family="Arial" font-size="12" lengthAdjust="spacingAndGlyphs" textLength="34" x="1519.5" y="298.5449">Redis</text><text fill="#000000" font-family="Arial" font-size="12" lengthAdjust="spacingAndGlyphs" textLength="96" x="1488.5" y="312.5137">(rate counters)</text><line style="stroke: #336699; stroke-width: 1.5;" x1="1460.5" x2="1586.5" y1="320.3438" y2="320.3438"/><text fill="#000000" font-family="sans-serif" font-size="11" lengthAdjust="spacingAndGlyphs" textLength="76" x="1465.5" y="334.5542">INCR / EXPIRE</text><line style="stroke: #336699; stroke-width: 1.5;" x1="1460.5" x2="1586.5" y1="341.1484" y2="341.1484"/><!--MD5=[594d271b7b86bc04a5e7d0ee23d47a83]
class AL--><rect fill="#DDEEFF" filter="url(#f1ushwfyw8kx34)" height="66.7422" id="AL" style="stroke: #336699; stroke-width: 1.5;" width="125" x="99" y="899.9063"/><ellipse cx="122.1" cy="918.875" fill="#ADD1B2" rx="11" ry="11" style="stroke: #336699; stroke-width: 1.0;"/><path d="M125.0688,924.5156 Q124.4906,924.8125 123.85,924.9531 Q123.2094,925.1094 122.5063,925.1094 Q120.0063,925.1094 118.6781,923.4688 Q117.3656,921.8125 117.3656,918.6875 Q117.3656,915.5625 118.6781,913.9063 Q120.0063,912.25 122.5063,912.25 Q123.2094,912.25 123.85,912.4063 Q124.5063,912.5625 125.0688,912.8594 L125.0688,915.5781 Q124.4438,915 123.85,914.7344 Q123.2563,914.4531 122.6313,914.4531 Q121.2875,914.4531 120.6,915.5313 Q119.9125,916.5938 119.9125,918.6875 Q119.9125,920.7813 120.6,921.8594 Q121.2875,922.9219 122.6313,922.9219 Q123.2563,922.9219 123.85,922.6563 Q124.4438,922.375 125.0688,921.7969 L125.0688,924.5156 Z "/><text fill="#000000" font-family="Arial" font-size="12" lengthAdjust="spacingAndGlyphs" textLength="75" x="137.9" y="916.0449">AuditLogger</text><text fill="#000000" font-family="Arial" font-size="12" lengthAdjust="spacingAndGlyphs" textLength="74" x="138.4" y="930.0137">(JSONL files)</text><line style="stroke: #336699; stroke-width: 1.5;" x1="100" x2="223" y1="937.8438" y2="937.8438"/><line style="stroke: #336699; stroke-width: 1.5;" x1="100" x2="223" y1="945.8438" y2="945.8438"/><text fill="#000000" font-family="sans-serif" font-size="11" lengthAdjust="spacingAndGlyphs" textLength="113" x="105" y="960.0542">writeAuditLog(entry)</text><path d="M1183.5,493.9063 L1183.5,517.4063 L1148.26,521.4063 L1183.5,525.4063 L1183.5,549.3047 A0,0 0 0 0 1183.5,549.3047 L1453.5,549.3047 A0,0 0 0 0 1453.5,549.3047 L1453.5,503.9063 L1443.5,493.9063 L1183.5,493.9063 A0,0 0 0 0 1183.5,493.9063 " fill="#FFFDE7" filter="url(#f1ushwfyw8kx34)" style="stroke: #F9A825; stroke-width: 1.0;"/><path d="M1443.5,493.9063 L1443.5,503.9063 L1453.5,503.9063 L1443.5,493.9063 " fill="#FFFDE7" style="stroke: #F9A825; stroke-width: 1.0;"/><text fill="#000000" font-family="sans-serif" font-size="13" font-weight="bold" lengthAdjust="spacingAndGlyphs" textLength="85" x="1189.5" y="510.9731">ASR-SEC-02</text><text fill="#000000" font-family="sans-serif" font-size="13" lengthAdjust="spacingAndGlyphs" textLength="147" x="1274.5" y="510.9731">: JWT in httpOnly cookie</text><text fill="#000000" font-family="sans-serif" font-size="13" lengthAdjust="spacingAndGlyphs" textLength="247" x="1189.5" y="526.106">Expiry: AUTH_SECRET_EXPIRES_IN (1h)</text><text fill="#000000" font-family="sans-serif" font-size="13" lengthAdjust="spacingAndGlyphs" textLength="249" x="1189.5" y="541.2388">Not accessible to JavaScript (XSS-safe)</text><path d="M352,692.9063 L352,731.9063 L317.34,735.9063 L352,739.9063 L352,778.5703 A0,0 0 0 0 352,778.5703 L703,778.5703 A0,0 0 0 0 703,778.5703 L703,702.9063 L693,692.9063 L352,692.9063 A0,0 0 0 0 352,692.9063 " fill="#FFFDE7" filter="url(#f1ushwfyw8kx34)" style="stroke: #F9A825; stroke-width: 1.0;"/><path d="M693,692.9063 L693,702.9063 L703,702.9063 L693,692.9063 " fill="#FFFDE7" style="stroke: #F9A825; stroke-width: 1.0;"/><text fill="#000000" font-family="sans-serif" font-size="13" font-weight="bold" lengthAdjust="spacingAndGlyphs" textLength="85" x="358" y="709.9731">ASR-SEC-05</text><text fill="#000000" font-family="sans-serif" font-size="13" lengthAdjust="spacingAndGlyphs" textLength="146" x="443" y="709.9731">: 100% RBAC coverage</text><text fill="#000000" font-family="sans-serif" font-size="13" lengthAdjust="spacingAndGlyphs" textLength="310" x="358" y="725.106">Admin routes: authenticateUser → requireAdmin</text><text fill="#000000" font-family="sans-serif" font-size="13" lengthAdjust="spacingAndGlyphs" textLength="330" x="358" y="740.2388">Teacher routes: authenticateUser → requireTeacher</text><text fill="#000000" font-family="sans-serif" font-size="13" lengthAdjust="spacingAndGlyphs" textLength="330" x="358" y="755.3716">Student routes: authenticateUser → requireStudent</text><text fill="#000000" font-family="sans-serif" font-size="13" lengthAdjust="spacingAndGlyphs" textLength="299" x="358" y="770.5044">All checks BEFORE any business logic executes</text><path d="M1489,485.9063 L1489,556.4375 A0,0 0 0 0 1489,556.4375 L1782,556.4375 A0,0 0 0 0 1782,556.4375 L1782,495.9063 L1772,485.9063 L1587.14,485.9063 L1421.58,379.0662 L1579.14,485.9063 L1489,485.9063 A0,0 0 0 0 1489,485.9063 " fill="#FFFDE7" filter="url(#f1ushwfyw8kx34)" style="stroke: #F9A825; stroke-width: 1.0;"/><path d="M1772,485.9063 L1772,495.9063 L1782,495.9063 L1772,485.9063 " fill="#FFFDE7" style="stroke: #F9A825; stroke-width: 1.0;"/><text fill="#000000" font-family="sans-serif" font-size="13" font-weight="bold" lengthAdjust="spacingAndGlyphs" textLength="85" x="1495" y="502.9731">ASR-SEC-08</text><text fill="#000000" font-family="sans-serif" font-size="13" lengthAdjust="spacingAndGlyphs" textLength="154" x="1580" y="502.9731">: Zod schema validation</text><text fill="#000000" font-family="sans-serif" font-size="13" lengthAdjust="spacingAndGlyphs" textLength="240" x="1495" y="518.106">validateBody(schema) on every route</text><text fill="#000000" font-family="sans-serif" font-size="13" lengthAdjust="spacingAndGlyphs" textLength="214" x="1495" y="533.2388">HTTP 400 on invalid/missing fields</text><text fill="#000000" font-family="sans-serif" font-size="13" lengthAdjust="spacingAndGlyphs" textLength="272" x="1495" y="548.3716">No DB interaction before validation passes</text><!--MD5=[9d3e0dd6a5b52e9da01edd5aca0c9e65]
link RL to RD--><path d="M1455.84,176.1263 C1471.99,209.2563 1491.33,248.9163 1505.18,277.3463 " fill="none" id="RL-&gt;RD" style="stroke: #003366; stroke-width: 1.0;"/><polygon fill="#003366" points="1507.53,282.1563,1507.1836,272.3135,1505.3399,277.6614,1499.9919,275.8177,1507.53,282.1563" style="stroke: #003366; stroke-width: 1.0;"/><text fill="#000000" font-family="sans-serif" font-size="13" lengthAdjust="spacingAndGlyphs" textLength="85" x="1477.5" y="218.9731">INCR / EXPIRE</text><!--MD5=[8f0275ee427277e238b0257141c5ec0d]
link RL to ZOD--><path d="M1369.48,175.9362 C1362.68,185.5163 1356.42,195.6463 1351.5,205.9063 C1345.31,218.8262 1340.69,233.3663 1337.25,247.5263 " fill="none" id="RL-&gt;ZOD" style="stroke: #003366; stroke-width: 1.0;"/><polygon fill="#003366" points="1336.04,252.7162,1341.968,244.8512,1337.1685,247.8453,1334.1745,243.0457,1336.04,252.7162" style="stroke: #003366; stroke-width: 1.0;"/><text fill="#000000" font-family="sans-serif" font-size="13" lengthAdjust="spacingAndGlyphs" textLength="110" x="1352.5" y="218.9731">next() [count OK]</text><!--MD5=[4e9c302deaad608ee2cb3385edabc0ad]
link ZOD to AM--><path d="M1233.72,379.0662 C1198.48,402.4363 1158.26,429.0963 1122.31,452.9163 " fill="none" id="ZOD-&gt;AM" style="stroke: #003366; stroke-width: 1.0;"/><polygon fill="#003366" points="1117.95,455.8063,1127.6599,454.1575,1122.1146,453.0393,1123.2328,447.4941,1117.95,455.8063" style="stroke: #003366; stroke-width: 1.0;"/><text fill="#000000" font-family="sans-serif" font-size="13" lengthAdjust="spacingAndGlyphs" textLength="136" x="1184.5" y="421.9731">next() [schema valid]</text><!--MD5=[f2a62399962945781daa7c4d351ccc64]
link AM to CTRL--><path d="M1148.3,580.6563 C1201.85,605.5863 1264.55,635.4663 1320.5,663.9063 C1327.11,667.2663 1333.88,670.7763 1340.7,674.3463 " fill="none" id="AM-&gt;CTRL" style="stroke: #003366; stroke-width: 1.0;"/><polygon fill="#003366" points="1345.42,676.8263,1339.3156,669.0973,1340.9945,674.4993,1335.5925,676.1781,1345.42,676.8263" style="stroke: #003366; stroke-width: 1.0;"/><text fill="#000000" font-family="sans-serif" font-size="13" lengthAdjust="spacingAndGlyphs" textLength="199" x="1256.5" y="629.9731">next() [JWT valid, no role guard]</text><!--MD5=[13583793def2f2c9f8c27f39dfad89d1]
link AM to RA--><path d="M892.92,541.4263 C753.82,563.8363 525.52,605.5663 334.5,663.9063 C330.37,665.1663 326.2,666.4862 322.02,667.8563 " fill="none" id="AM-&gt;RA" style="stroke: #003366; stroke-width: 1.0;"/><polygon fill="#003366" points="317.09,669.4962,326.8905,670.4714,321.8377,667.9279,324.3812,662.8752,317.09,669.4962" style="stroke: #003366; stroke-width: 1.0;"/><text fill="#000000" font-family="sans-serif" font-size="13" lengthAdjust="spacingAndGlyphs" textLength="120" x="502.5" y="629.9731">if admin-only route</text><!--MD5=[f2643c7a9569c26bcae863fb7317477f]
link AM to RT--><path d="M974.88,587.0263 C954.1,616.4762 929.74,650.9862 909.78,679.2563 " fill="none" id="AM-&gt;RT" style="stroke: #003366; stroke-width: 1.0;"/><polygon fill="#003366" points="906.87,683.3863,915.3294,678.3426,909.7545,679.3022,908.7949,673.7273,906.87,683.3863" style="stroke: #003366; stroke-width: 1.0;"/><text fill="#000000" font-family="sans-serif" font-size="13" lengthAdjust="spacingAndGlyphs" textLength="98" x="951.5" y="629.9731">if teacher route</text><!--MD5=[75f4a1861ee10cb67f82409b22809a68]
link AM to RS--><path d="M1066.12,587.0263 C1086.9,616.4762 1111.26,650.9862 1131.22,679.2563 " fill="none" id="AM-&gt;RS" style="stroke: #003366; stroke-width: 1.0;"/><polygon fill="#003366" points="1134.13,683.3863,1132.2051,673.7273,1131.2455,679.3022,1125.6706,678.3426,1134.13,683.3863" style="stroke: #003366; stroke-width: 1.0;"/><text fill="#000000" font-family="sans-serif" font-size="13" lengthAdjust="spacingAndGlyphs" textLength="98" x="1096.5" y="629.9731">if student route</text><!--MD5=[72c90e32a2bc3576ea24668cea1f245c]
link RA to PG--><path d="M317.04,802.4963 C322.9,804.4063 328.74,806.2163 334.5,807.9063 C553.05,871.8463 820.89,909.0963 947.13,924.3163 " fill="none" id="RA-&gt;PG" style="stroke: #003366; stroke-width: 1.0;"/><polygon fill="#003366" points="952.3,924.9363,943.8441,919.8867,947.336,924.3371,942.8856,927.8291,952.3,924.9363" style="stroke: #003366; stroke-width: 1.0;"/><text fill="#000000" font-family="sans-serif" font-size="13" lengthAdjust="spacingAndGlyphs" textLength="148" x="596.5" y="858.4731">prisma.user.findUnique</text><!--MD5=[c0c03579cb1941b5918399e72a9af671]
link RT to PG--><path d="M896.35,788.5663 C910.37,814.2463 929.01,845.0263 949.5,869.9063 C957.02,879.0363 965.91,888.0163 974.78,896.1963 " fill="none" id="RT-&gt;PG" style="stroke: #003366; stroke-width: 1.0;"/><polygon fill="#003366" points="978.58,899.6563,974.6216,890.6379,974.8842,896.2886,969.2334,896.5512,978.58,899.6563" style="stroke: #003366; stroke-width: 1.0;"/><text fill="#000000" font-family="sans-serif" font-size="13" lengthAdjust="spacingAndGlyphs" textLength="148" x="950.5" y="858.4731">prisma.user.findUnique</text><!--MD5=[66ea32e1f5213a02c2a6107d95cc2656]
link RS to PG--><path d="M1151.19,788.5563 C1139.83,814.6763 1123.71,845.8563 1103.5,869.9063 C1095.34,879.6163 1085.4,888.6663 1075.24,896.7063 " fill="none" id="RS-&gt;PG" style="stroke: #003366; stroke-width: 1.0;"/><polygon fill="#003366" points="1071.19,899.8563,1080.7481,897.481,1075.1345,896.7836,1075.8319,891.1699,1071.19,899.8563" style="stroke: #003366; stroke-width: 1.0;"/><text fill="#000000" font-family="sans-serif" font-size="13" lengthAdjust="spacingAndGlyphs" textLength="148" x="1126.5" y="858.4731">prisma.user.findUnique</text><!--MD5=[0df0480227a47d2deeabff7863abd4e9]
link RA to AL--><path d="M161.5,808.0363 C161.5,837.3963 161.5,870.2163 161.5,894.7663 " fill="none" id="RA-&gt;AL" style="stroke: #003366; stroke-width: 1.0;"/><polygon fill="#003366" points="161.5,899.8763,165.5,890.8763,161.5,894.8763,157.5,890.8763,161.5,899.8763" style="stroke: #003366; stroke-width: 1.0;"/><text fill="#000000" font-family="sans-serif" font-size="13" lengthAdjust="spacingAndGlyphs" textLength="96" x="162.5" y="858.4731">writeAuditLog()</text><!--MD5=[275a5deb2988db6aeab0e012f8a2d7a5]
link CTRL to PG--><path d="M1390.76,795.1863 C1360.73,821.5363 1322.5,850.9463 1283.5,869.9063 C1222.46,899.5863 1146.49,915.6563 1091.74,924.0263 " fill="none" id="CTRL-&gt;PG" style="stroke: #003366; stroke-width: 1.0;"/><polygon fill="#003366" points="1086.51,924.8163,1096.0045,927.4342,1091.4545,924.0732,1094.8156,919.5231,1086.51,924.8163" style="stroke: #003366; stroke-width: 1.0;"/><text fill="#000000" font-family="sans-serif" font-size="13" lengthAdjust="spacingAndGlyphs" textLength="182" x="1335.5" y="850.9731">Prisma parameterized query</text><text fill="#000000" font-family="sans-serif" font-size="13" lengthAdjust="spacingAndGlyphs" textLength="88" x="1382.5" y="866.106">(ASR-SEC-09)</text><!--MD5=[cf66a4c345b1a3a58412807f6dff0f9e]
@startuml C4_L4_RBAC_Middleware
title C4 Level 4 — RBAC Middleware Chain\n(ASR-SEC-05, ASR-SEC-08, ASR-SEC-15)

skinparam backgroundColor #FAFAFA
skinparam classAttributeIconSize 0
skinparam class {
    BackgroundColor #DDEEFF
    BorderColor #336699
    ArrowColor #003366
    FontName Arial
}
skinparam note {
    BackgroundColor #FFFDE7
    BorderColor #F9A825
}

class "rateLimiter(rule)\n<<middleware>>" as RL {
    rule: { endpoint, rate_limit: {time, limit} }
    ..
    handle(req, res, next)
    - -
    redisClient.incr(endpoint+"/"+ip)
    redisClient.expire(key, time)
    count > limit => HTTP 429
}

class "validateBody(schema)\n<<middleware>> [Zod]" as ZOD {
    schema: ZodSchema
    ..
    handle(req, res, next)
    - -
    schema.safeParse(req.body)
    error => HTTP 400 + zodErrors
    success => req.body = parsed
}

class "AuthMiddleware.authenticateUser()\n<<middleware>>" as AM {
    handle(req, res, next)
    - -
    cookie = req.cookies.accessToken
    no cookie => HTTP 401
    decoded = jwt.verify(cookie, secret)
    req.userId = decoded.userId
    next()
}

class "AuthMiddleware.requireAdmin()\n<<middleware>>" as RA {
    handle(req, res, next)
    - -
    userId = req.userId
    not userId => HTTP 401
    user = prisma.user.findUnique(userId)
    role != ADMIN => writeAuditLog(DENIED) + HTTP 403
    writeAuditLog(GRANTED)
    next()
}

class "AuthMiddleware.requireTeacher()\n<<middleware>>" as RT {
    handle(req, res, next)
    - -
    user = prisma.user.findUnique(userId)
    role != TEACHER && != ADMIN => HTTP 403
    next()
}

class "AuthMiddleware.requireStudent()\n<<middleware>>" as RS {
    handle(req, res, next)
    - -
    user = prisma.user.findUnique(userId)
    role != STUDENT && != ADMIN => HTTP 403
    next()
}

class "Domain Controller\n(Courses, Materials, etc.)" as CTRL {
    handler(req, res)
    - -
    req.userId    set by authenticateUser
    req.body      validated by Zod
    business logic
    prisma query (ASR-SEC-09)
}

class "PostgreSQL\n(User table)" as PG {
    findUnique(id): {role}
}

class "Redis\n(rate counters)" as RD {
    INCR / EXPIRE
}

class "AuditLogger\n(JSONL files)" as AL {
    writeAuditLog(entry)
}

RL - -> RD : INCR / EXPIRE
RL - -> ZOD : next() [count OK]
ZOD - -> AM : next() [schema valid]
AM - -> CTRL : next() [JWT valid, no role guard]
AM - -> RA : if admin-only route
AM - -> RT : if teacher route
AM - -> RS : if student route
RA - -> PG : prisma.user.findUnique
RT - -> PG : prisma.user.findUnique
RS - -> PG : prisma.user.findUnique
RA - -> AL : writeAuditLog()
CTRL - -> PG : Prisma parameterized query\n(ASR-SEC-09)

note right of AM
  <b>ASR-SEC-02</b>: JWT in httpOnly cookie
  Expiry: AUTH_SECRET_EXPIRES_IN (1h)
  Not accessible to JavaScript (XSS-safe)
end note

note right of RA
  <b>ASR-SEC-05</b>: 100% RBAC coverage
  Admin routes: authenticateUser → requireAdmin
  Teacher routes: authenticateUser → requireTeacher
  Student routes: authenticateUser → requireStudent
  All checks BEFORE any business logic executes
end note

note bottom of ZOD
  <b>ASR-SEC-08</b>: Zod schema validation
  validateBody(schema) on every route
  HTTP 400 on invalid/missing fields
  No DB interaction before validation passes
end note
@enduml

PlantUML version 1.2020.02(Sun Mar 01 10:22:07 UTC 2020)
(GPL source distribution)
Java Runtime: OpenJDK Runtime Environment
JVM: OpenJDK 64-Bit Server VM
Java Version: 21.0.10+7-Ubuntu-124.04
Operating System: Linux
Default Encoding: UTF-8
Language: en
Country: US
--></g></svg>