<?xml version="1.0" encoding="UTF-8" standalone="no"?><svg xmlns="http://www.w3.org/2000/svg" xmlns:xlink="http://www.w3.org/1999/xlink" contentScriptType="application/ecmascript" contentStyleType="text/css" height="866px" preserveAspectRatio="none" style="width:1545px;height:866px;background:#FAFAFA;" version="1.1" viewBox="0 0 1545 866" width="1545px" zoomAndPan="magnify"><defs><filter height="300%" id="f1saa70u6ndc0v" width="300%" x="-1" y="-1"><feGaussianBlur result="blurOut" stdDeviation="2.0"/><feColorMatrix in="blurOut" result="blurOut2" type="matrix" values="0 0 0 0 0 0 0 0 0 0 0 0 0 0 0 0 0 0 .4 0"/><feOffset dx="4.0" dy="4.0" in="blurOut2" result="blurOut3"/><feBlend in="SourceGraphic" in2="blurOut3" mode="normal"/></filter></defs><g><text fill="#000000" font-family="sans-serif" font-size="18" lengthAdjust="spacingAndGlyphs" textLength="318" x="616.5" y="16.708">C4 Level 4 — Audit Logging System</text><text fill="#000000" font-family="sans-serif" font-size="18" lengthAdjust="spacingAndGlyphs" textLength="240" x="655.5" y="37.6611">(ASR-SEC-10, ASR-SEC-11)</text><!--MD5=[d0d967d4023c7a4ad2f845d5f8acfe11]
class AUC--><rect fill="#DDEEFF" filter="url(#f1saa70u6ndc0v)" height="86.4141" id="AUC" style="stroke: #336699; stroke-width: 1.5;" width="268" x="6" y="49.9063"/><ellipse cx="90.75" cy="65.9063" fill="#ADD1B2" rx="11" ry="11" style="stroke: #336699; stroke-width: 1.0;"/><path d="M93.7188,71.5469 Q93.1406,71.8438 92.5,71.9844 Q91.8594,72.1406 91.1563,72.1406 Q88.6563,72.1406 87.3281,70.5 Q86.0156,68.8438 86.0156,65.7188 Q86.0156,62.5938 87.3281,60.9375 Q88.6563,59.2813 91.1563,59.2813 Q91.8594,59.2813 92.5,59.4375 Q93.1563,59.5938 93.7188,59.8906 L93.7188,62.6094 Q93.0938,62.0313 92.5,61.7656 Q91.9063,61.4844 91.2813,61.4844 Q89.9375,61.4844 89.25,62.5625 Q88.5625,63.625 88.5625,65.7188 Q88.5625,67.8125 89.25,68.8906 Q89.9375,69.9531 91.2813,69.9531 Q91.9063,69.9531 92.5,69.6875 Q93.0938,69.4063 93.7188,68.8281 L93.7188,71.5469 Z "/><text fill="#000000" font-family="Arial" font-size="12" lengthAdjust="spacingAndGlyphs" textLength="90" x="111.25" y="70.0605">AuthController</text><line style="stroke: #336699; stroke-width: 1.5;" x1="7" x2="273" y1="81.9063" y2="81.9063"/><line style="stroke: #336699; stroke-width: 1.5;" x1="7" x2="273" y1="89.9063" y2="89.9063"/><text fill="#000000" font-family="sans-serif" font-size="11" lengthAdjust="spacingAndGlyphs" textLength="229" x="12" y="104.1167">register() =&gt; AUTH/REGISTER_SUCCESS</text><text fill="#000000" font-family="sans-serif" font-size="11" lengthAdjust="spacingAndGlyphs" textLength="256" x="12" y="116.9214">login()     =&gt; AUTH/LOGIN_SUCCESS | FAILED</text><text fill="#000000" font-family="sans-serif" font-size="11" lengthAdjust="spacingAndGlyphs" textLength="163" x="12" y="129.7261">logout()    =&gt; AUTH/LOGOUT</text><!--MD5=[22e5d5b4c441f3dbc8b6f363f923fdb4]
class MC--><rect fill="#DDEEFF" filter="url(#f1saa70u6ndc0v)" height="73.6094" id="MC" style="stroke: #336699; stroke-width: 1.5;" width="288" x="309" y="55.9063"/><ellipse cx="389.75" cy="71.9063" fill="#ADD1B2" rx="11" ry="11" style="stroke: #336699; stroke-width: 1.0;"/><path d="M392.7188,77.5469 Q392.1406,77.8438 391.5,77.9844 Q390.8594,78.1406 390.1563,78.1406 Q387.6563,78.1406 386.3281,76.5 Q385.0156,74.8438 385.0156,71.7188 Q385.0156,68.5938 386.3281,66.9375 Q387.6563,65.2813 390.1563,65.2813 Q390.8594,65.2813 391.5,65.4375 Q392.1563,65.5938 392.7188,65.8906 L392.7188,68.6094 Q392.0938,68.0313 391.5,67.7656 Q390.9063,67.4844 390.2813,67.4844 Q388.9375,67.4844 388.25,68.5625 Q387.5625,69.625 387.5625,71.7188 Q387.5625,73.8125 388.25,74.8906 Q388.9375,75.9531 390.2813,75.9531 Q390.9063,75.9531 391.5,75.6875 Q392.0938,75.4063 392.7188,74.8281 L392.7188,77.5469 Z "/><text fill="#000000" font-family="Arial" font-size="12" lengthAdjust="spacingAndGlyphs" textLength="118" x="410.25" y="76.0605">MaterialsController</text><line style="stroke: #336699; stroke-width: 1.5;" x1="310" x2="596" y1="87.9063" y2="87.9063"/><line style="stroke: #336699; stroke-width: 1.5;" x1="310" x2="596" y1="95.9063" y2="95.9063"/><text fill="#000000" font-family="sans-serif" font-size="11" lengthAdjust="spacingAndGlyphs" textLength="270" x="315" y="110.1167">getMaterials() =&gt; FILE_ACCESS/MATERIAL_READ</text><text fill="#000000" font-family="sans-serif" font-size="11" lengthAdjust="spacingAndGlyphs" textLength="276" x="315" y="122.9214">create()       =&gt; FILE_ACCESS/MATERIAL_UPLOAD</text><!--MD5=[4548dc82e8c737ec48d57c6d92b33cd8]
class AMD--><rect fill="#DDEEFF" filter="url(#f1saa70u6ndc0v)" height="60.8047" id="AMD" style="stroke: #336699; stroke-width: 1.5;" width="275" x="632.5" y="62.4063"/><ellipse cx="668.65" cy="78.4063" fill="#ADD1B2" rx="11" ry="11" style="stroke: #336699; stroke-width: 1.0;"/><path d="M671.6188,84.0469 Q671.0406,84.3438 670.4,84.4844 Q669.7594,84.6406 669.0563,84.6406 Q666.5563,84.6406 665.2281,83 Q663.9156,81.3438 663.9156,78.2188 Q663.9156,75.0938 665.2281,73.4375 Q666.5563,71.7813 669.0563,71.7813 Q669.7594,71.7813 670.4,71.9375 Q671.0563,72.0938 671.6188,72.3906 L671.6188,75.1094 Q670.9938,74.5313 670.4,74.2656 Q669.8063,73.9844 669.1813,73.9844 Q667.8375,73.9844 667.15,75.0625 Q666.4625,76.125 666.4625,78.2188 Q666.4625,80.3125 667.15,81.3906 Q667.8375,82.4531 669.1813,82.4531 Q669.8063,82.4531 670.4,82.1875 Q670.9938,81.9063 671.6188,81.3281 L671.6188,84.0469 Z "/><text fill="#000000" font-family="Arial" font-size="12" lengthAdjust="spacingAndGlyphs" textLength="196" x="687.35" y="82.5605">AuthMiddleware.requireAdmin()</text><line style="stroke: #336699; stroke-width: 1.5;" x1="633.5" x2="906.5" y1="94.4063" y2="94.4063"/><line style="stroke: #336699; stroke-width: 1.5;" x1="633.5" x2="906.5" y1="102.4063" y2="102.4063"/><text fill="#000000" font-family="sans-serif" font-size="11" lengthAdjust="spacingAndGlyphs" textLength="263" x="638.5" y="116.6167">check() =&gt; ADMIN/ACCESS_GRANTED | DENIED</text><!--MD5=[80cb5e36e9ae55aeec564871360d3b9d]
class WAL--><rect fill="#DDEEFF" filter="url(#f1saa70u6ndc0v)" height="138.7656" id="WAL" style="stroke: #336699; stroke-width: 1.5;" width="319" x="293.5" y="212.9063"/><ellipse cx="377.25" cy="231.875" fill="#ADD1B2" rx="11" ry="11" style="stroke: #336699; stroke-width: 1.0;"/><path d="M380.2188,237.5156 Q379.6406,237.8125 379,237.9531 Q378.3594,238.1094 377.6563,238.1094 Q375.1563,238.1094 373.8281,236.4688 Q372.5156,234.8125 372.5156,231.6875 Q372.5156,228.5625 373.8281,226.9063 Q375.1563,225.25 377.6563,225.25 Q378.3594,225.25 379,225.4063 Q379.6563,225.5625 380.2188,225.8594 L380.2188,228.5781 Q379.5938,228 379,227.7344 Q378.4063,227.4531 377.7813,227.4531 Q376.4375,227.4531 375.75,228.5313 Q375.0625,229.5938 375.0625,231.6875 Q375.0625,233.7813 375.75,234.8594 Q376.4375,235.9219 377.7813,235.9219 Q378.4063,235.9219 379,235.6563 Q379.5938,235.375 380.2188,234.7969 L380.2188,237.5156 Z "/><text fill="#000000" font-family="Arial" font-size="12" lengthAdjust="spacingAndGlyphs" textLength="143" x="397.75" y="229.0449">writeAuditLog(payload)</text><text fill="#000000" font-family="Arial" font-size="12" lengthAdjust="spacingAndGlyphs" textLength="138" x="400.25" y="243.0137">&lt;&lt;util/auditLogger&gt;&gt;</text><line style="stroke: #336699; stroke-width: 1.5;" x1="294.5" x2="611.5" y1="250.8438" y2="250.8438"/><text fill="#000000" font-family="sans-serif" font-size="11" lengthAdjust="spacingAndGlyphs" textLength="253" x="299.5" y="265.0542">payload: Omit&lt;AuditLogEntry, "timestamp"&gt;</text><line style="stroke: #336699; stroke-width: 1.0; stroke-dasharray: 1.0,2.0;" x1="294.5" x2="611.5" y1="271.6484" y2="271.6484"/><text fill="#000000" font-family="sans-serif" font-size="11" lengthAdjust="spacingAndGlyphs" textLength="80" x="299.5" y="285.8589">write(payload)</text><line style="stroke: #336699; stroke-width: 1.0;" x1="294.5" x2="611.5" y1="292.4531" y2="292.4531"/><text fill="#000000" font-family="sans-serif" font-size="11" lengthAdjust="spacingAndGlyphs" textLength="107" x="299.5" y="306.6636">1. ensureAuditDir()</text><text fill="#000000" font-family="sans-serif" font-size="11" lengthAdjust="spacingAndGlyphs" textLength="175" x="299.5" y="319.4683">2. cleanupOldFiles() [once/day]</text><text fill="#000000" font-family="sans-serif" font-size="11" lengthAdjust="spacingAndGlyphs" textLength="247" x="299.5" y="332.2729">3. path = AUDIT_LOG_DIR / YYYY-MM-DD.log</text><text fill="#000000" font-family="sans-serif" font-size="11" lengthAdjust="spacingAndGlyphs" textLength="307" x="299.5" y="345.0776">4. fs.appendFile(path, JSON.stringify(entry) + newline)</text><!--MD5=[66f5c40d7885704714029ead8b730df3]
class ENTRY--><rect fill="#DDEEFF" filter="url(#f1saa70u6ndc0v)" height="201.6563" id="ENTRY" style="stroke: #336699; stroke-width: 1.5;" width="290" x="308" y="428.9063"/><ellipse cx="405.75" cy="444.9063" fill="#ADD1B2" rx="11" ry="11" style="stroke: #336699; stroke-width: 1.0;"/><path d="M408.7188,450.5469 Q408.1406,450.8438 407.5,450.9844 Q406.8594,451.1406 406.1563,451.1406 Q403.6563,451.1406 402.3281,449.5 Q401.0156,447.8438 401.0156,444.7188 Q401.0156,441.5938 402.3281,439.9375 Q403.6563,438.2813 406.1563,438.2813 Q406.8594,438.2813 407.5,438.4375 Q408.1563,438.5938 408.7188,438.8906 L408.7188,441.6094 Q408.0938,441.0313 407.5,440.7656 Q406.9063,440.4844 406.2813,440.4844 Q404.9375,440.4844 404.25,441.5625 Q403.5625,442.625 403.5625,444.7188 Q403.5625,446.8125 404.25,447.8906 Q404.9375,448.9531 406.2813,448.9531 Q406.9063,448.9531 407.5,448.6875 Q408.0938,448.4063 408.7188,447.8281 L408.7188,450.5469 Z "/><text fill="#000000" font-family="Arial" font-size="12" lengthAdjust="spacingAndGlyphs" textLength="86" x="426.25" y="449.0605">AuditLogEntry</text><line style="stroke: #336699; stroke-width: 1.5;" x1="309" x2="597" y1="460.9063" y2="460.9063"/><text fill="#000000" font-family="sans-serif" font-size="11" lengthAdjust="spacingAndGlyphs" textLength="121" x="314" y="475.1167">timestamp: ISO-8601</text><text fill="#000000" font-family="sans-serif" font-size="11" lengthAdjust="spacingAndGlyphs" textLength="278" x="314" y="487.9214">category: AUTH | ADMIN | FILE_ACCESS | SYSTEM</text><text fill="#000000" font-family="sans-serif" font-size="11" lengthAdjust="spacingAndGlyphs" textLength="75" x="314" y="500.7261">action: string</text><text fill="#000000" font-family="sans-serif" font-size="11" lengthAdjust="spacingAndGlyphs" textLength="100" x="314" y="513.5308">success: boolean</text><text fill="#000000" font-family="sans-serif" font-size="11" lengthAdjust="spacingAndGlyphs" textLength="83" x="314" y="526.3354">userId?: string</text><text fill="#000000" font-family="sans-serif" font-size="11" lengthAdjust="spacingAndGlyphs" textLength="57" x="314" y="539.1401">ip?: string</text><text fill="#000000" font-family="sans-serif" font-size="11" lengthAdjust="spacingAndGlyphs" textLength="90" x="314" y="551.9448">method?: string</text><text fill="#000000" font-family="sans-serif" font-size="11" lengthAdjust="spacingAndGlyphs" textLength="72" x="314" y="564.7495">path?: string</text><text fill="#000000" font-family="sans-serif" font-size="11" lengthAdjust="spacingAndGlyphs" textLength="123" x="314" y="577.5542">statusCode?: number</text><text fill="#000000" font-family="sans-serif" font-size="11" lengthAdjust="spacingAndGlyphs" textLength="125" x="314" y="590.3589">resourceType?: string</text><text fill="#000000" font-family="sans-serif" font-size="11" lengthAdjust="spacingAndGlyphs" textLength="108" x="314" y="603.1636">resourceId?: string</text><text fill="#000000" font-family="sans-serif" font-size="11" lengthAdjust="spacingAndGlyphs" textLength="216" x="314" y="615.9683">metadata?: Record&lt;string, unknown&gt;</text><line style="stroke: #336699; stroke-width: 1.5;" x1="309" x2="597" y1="622.5625" y2="622.5625"/><!--MD5=[ca27762602fbb6502cb9a8352741bd0c]
class CLEAN--><rect fill="#DDEEFF" filter="url(#f1saa70u6ndc0v)" height="117.9609" id="CLEAN" style="stroke: #336699; stroke-width: 1.5;" width="265" x="633.5" y="470.9063"/><ellipse cx="676.85" cy="489.875" fill="#ADD1B2" rx="11" ry="11" style="stroke: #336699; stroke-width: 1.0;"/><path d="M679.8188,495.5156 Q679.2406,495.8125 678.6,495.9531 Q677.9594,496.1094 677.2563,496.1094 Q674.7563,496.1094 673.4281,494.4688 Q672.1156,492.8125 672.1156,489.6875 Q672.1156,486.5625 673.4281,484.9063 Q674.7563,483.25 677.2563,483.25 Q677.9594,483.25 678.6,483.4063 Q679.2563,483.5625 679.8188,483.8594 L679.8188,486.5781 Q679.1938,486 678.6,485.7344 Q678.0063,485.4531 677.3813,485.4531 Q676.0375,485.4531 675.35,486.5313 Q674.6625,487.5938 674.6625,489.6875 Q674.6625,491.7813 675.35,492.8594 Q676.0375,493.9219 677.3813,493.9219 Q678.0063,493.9219 678.6,493.6563 Q679.1938,493.375 679.8188,492.7969 L679.8188,495.5156 Z "/><text fill="#000000" font-family="Arial" font-size="12" lengthAdjust="spacingAndGlyphs" textLength="108" x="728.15" y="487.0449">cleanupOldFiles()</text><text fill="#000000" font-family="Arial" font-size="12" lengthAdjust="spacingAndGlyphs" textLength="170" x="697.15" y="501.0137">&lt;&lt;scheduled: once/day&gt;&gt;</text><line style="stroke: #336699; stroke-width: 1.5;" x1="634.5" x2="897.5" y1="508.8438" y2="508.8438"/><text fill="#000000" font-family="sans-serif" font-size="11" lengthAdjust="spacingAndGlyphs" textLength="27" x="639.5" y="523.0542">run()</text><line style="stroke: #336699; stroke-width: 1.0;" x1="634.5" x2="897.5" y1="529.6484" y2="529.6484"/><text fill="#000000" font-family="sans-serif" font-size="11" lengthAdjust="spacingAndGlyphs" textLength="192" x="639.5" y="543.8589">files = fs.readdir(AUDIT_LOG_DIR)</text><text fill="#000000" font-family="sans-serif" font-size="11" lengthAdjust="spacingAndGlyphs" textLength="253" x="639.5" y="556.6636">cutoff = now - AUDIT_RETENTION_DAYS days</text><text fill="#000000" font-family="sans-serif" font-size="11" lengthAdjust="spacingAndGlyphs" textLength="223" x="639.5" y="569.4683">files where date &lt; cutoff =&gt; fs.unlink()</text><text fill="#000000" font-family="sans-serif" font-size="11" lengthAdjust="spacingAndGlyphs" textLength="178" x="639.5" y="582.2729">[ASR-SEC-11: default 365 days]</text><!--MD5=[950f463f6c18610d0eafba60b8520f2c]
class QUERY--><rect fill="#DDEEFF" filter="url(#f1saa70u6ndc0v)" height="143.5703" id="QUERY" style="stroke: #336699; stroke-width: 1.5;" width="273" x="933.5" y="457.9063"/><ellipse cx="995.25" cy="476.875" fill="#ADD1B2" rx="11" ry="11" style="stroke: #336699; stroke-width: 1.0;"/><path d="M998.2188,482.5156 Q997.6406,482.8125 997,482.9531 Q996.3594,483.1094 995.6563,483.1094 Q993.1563,483.1094 991.8281,481.4688 Q990.5156,479.8125 990.5156,476.6875 Q990.5156,473.5625 991.8281,471.9063 Q993.1563,470.25 995.6563,470.25 Q996.3594,470.25 997,470.4063 Q997.6563,470.5625 998.2188,470.8594 L998.2188,473.5781 Q997.5938,473 997,472.7344 Q996.4063,472.4531 995.7813,472.4531 Q994.4375,472.4531 993.75,473.5313 Q993.0625,474.5938 993.0625,476.6875 Q993.0625,478.7813 993.75,479.8594 Q994.4375,480.9219 995.7813,480.9219 Q996.4063,480.9219 997,480.6563 Q997.5938,480.375 998.2188,479.7969 L998.2188,482.5156 Z "/><text fill="#000000" font-family="Arial" font-size="12" lengthAdjust="spacingAndGlyphs" textLength="141" x="1015.75" y="474.0449">queryAuditLogs(query)</text><text fill="#000000" font-family="Arial" font-size="12" lengthAdjust="spacingAndGlyphs" textLength="138" x="1017.25" y="488.0137">&lt;&lt;util/auditLogger&gt;&gt;</text><line style="stroke: #336699; stroke-width: 1.5;" x1="934.5" x2="1205.5" y1="495.8438" y2="495.8438"/><text fill="#000000" font-family="sans-serif" font-size="11" lengthAdjust="spacingAndGlyphs" textLength="261" x="939.5" y="510.0542">query(from, to, category, action, userId, limit)</text><line style="stroke: #336699; stroke-width: 1.0;" x1="934.5" x2="1205.5" y1="516.6484" y2="516.6484"/><text fill="#000000" font-family="sans-serif" font-size="11" lengthAdjust="spacingAndGlyphs" textLength="201" x="939.5" y="530.8589">eachDay(from, to).map(getFilePath)</text><text fill="#000000" font-family="sans-serif" font-size="11" lengthAdjust="spacingAndGlyphs" textLength="136" x="939.5" y="543.6636">fs.readFile each day file</text><text fill="#000000" font-family="sans-serif" font-size="11" lengthAdjust="spacingAndGlyphs" textLength="158" x="939.5" y="556.4683">JSON.parse each JSONL line</text><text fill="#000000" font-family="sans-serif" font-size="11" lengthAdjust="spacingAndGlyphs" textLength="127" x="939.5" y="569.2729">filter by query params</text><text fill="#000000" font-family="sans-serif" font-size="11" lengthAdjust="spacingAndGlyphs" textLength="136" x="939.5" y="582.0776">sort desc by timestamp</text><text fill="#000000" font-family="sans-serif" font-size="11" lengthAdjust="spacingAndGlyphs" textLength="138" x="939.5" y="594.8823">slice(0, min(limit, 5000))</text><!--MD5=[affbec4b17132812183583359c5ff281]
class AC--><rect fill="#DDEEFF" filter="url(#f1saa70u6ndc0v)" height="119.125" id="AC" style="stroke: #336699; stroke-width: 1.5;" width="263" x="938.5" y="222.9063"/><ellipse cx="1007.25" cy="248.8594" fill="#ADD1B2" rx="11" ry="11" style="stroke: #336699; stroke-width: 1.0;"/><path d="M1010.2188,254.5 Q1009.6406,254.7969 1009,254.9375 Q1008.3594,255.0938 1007.6563,255.0938 Q1005.1563,255.0938 1003.8281,253.4531 Q1002.5156,251.7969 1002.5156,248.6719 Q1002.5156,245.5469 1003.8281,243.8906 Q1005.1563,242.2344 1007.6563,242.2344 Q1008.3594,242.2344 1009,242.3906 Q1009.6563,242.5469 1010.2188,242.8438 L1010.2188,245.5625 Q1009.5938,244.9844 1009,244.7188 Q1008.4063,244.4375 1007.7813,244.4375 Q1006.4375,244.4375 1005.75,245.5156 Q1005.0625,246.5781 1005.0625,248.6719 Q1005.0625,250.7656 1005.75,251.8438 Q1006.4375,252.9063 1007.7813,252.9063 Q1008.4063,252.9063 1009,252.6406 Q1009.5938,252.3594 1010.2188,251.7813 L1010.2188,254.5 Z "/><text fill="#000000" font-family="Arial" font-size="12" lengthAdjust="spacingAndGlyphs" textLength="93" x="1039.75" y="239.0449">AuditController</text><text fill="#000000" font-family="Arial" font-size="12" lengthAdjust="spacingAndGlyphs" textLength="117" x="1027.75" y="253.0137">GET /api/audit/logs</text><text fill="#000000" font-family="Arial" font-size="12" lengthAdjust="spacingAndGlyphs" textLength="107" x="1032.75" y="266.9824">&lt;&lt;admin-only&gt;&gt;</text><line style="stroke: #336699; stroke-width: 1.5;" x1="939.5" x2="1200.5" y1="274.8125" y2="274.8125"/><text fill="#000000" font-family="sans-serif" font-size="11" lengthAdjust="spacingAndGlyphs" textLength="99" x="944.5" y="289.0229">getLogs(req, res)</text><line style="stroke: #336699; stroke-width: 1.0;" x1="939.5" x2="1200.5" y1="295.6172" y2="295.6172"/><text fill="#000000" font-family="sans-serif" font-size="11" lengthAdjust="spacingAndGlyphs" textLength="121" x="944.5" y="309.8276">[requireAdmin guard]</text><text fill="#000000" font-family="sans-serif" font-size="11" lengthAdjust="spacingAndGlyphs" textLength="150" x="944.5" y="322.6323">queryAuditLogs(req.query)</text><text fill="#000000" font-family="sans-serif" font-size="11" lengthAdjust="spacingAndGlyphs" textLength="251" x="944.5" y="335.437">return {logs, total, from, to, retentionDays}</text><!--MD5=[72a2f7766e1b7ade62cbc39eb145b022]
class LOGVOL--><rect fill="#DDEEFF" filter="url(#f1saa70u6ndc0v)" height="106.3203" id="LOGVOL" style="stroke: #336699; stroke-width: 1.5;" width="227" x="652.5" y="727.9063"/><ellipse cx="667.5" cy="753.8594" fill="#ADD1B2" rx="11" ry="11" style="stroke: #336699; stroke-width: 1.0;"/><path d="M670.4688,759.5 Q669.8906,759.7969 669.25,759.9375 Q668.6094,760.0938 667.9063,760.0938 Q665.4063,760.0938 664.0781,758.4531 Q662.7656,756.7969 662.7656,753.6719 Q662.7656,750.5469 664.0781,748.8906 Q665.4063,747.2344 667.9063,747.2344 Q668.6094,747.2344 669.25,747.3906 Q669.9063,747.5469 670.4688,747.8438 L670.4688,750.5625 Q669.8438,749.9844 669.25,749.7188 Q668.6563,749.4375 668.0313,749.4375 Q666.6875,749.4375 666,750.5156 Q665.3125,751.5781 665.3125,753.6719 Q665.3125,755.7656 666,756.8438 Q666.6875,757.9063 668.0313,757.9063 Q668.6563,757.9063 669.25,757.6406 Q669.8438,757.3594 670.4688,756.7813 L670.4688,759.5 Z "/><text fill="#000000" font-family="Arial" font-size="12" lengthAdjust="spacingAndGlyphs" textLength="167" x="695.5" y="744.0449">server-logs Docker Volume</text><text fill="#000000" font-family="Arial" font-size="12" lengthAdjust="spacingAndGlyphs" textLength="195" x="681.5" y="758.0137">/app/logs/audit/YYYY-MM-DD.log</text><text fill="#000000" font-family="Arial" font-size="12" lengthAdjust="spacingAndGlyphs" textLength="156" x="701" y="771.9824">&lt;&lt;append-only JSONL&gt;&gt;</text><line style="stroke: #336699; stroke-width: 1.5;" x1="653.5" x2="878.5" y1="779.8125" y2="779.8125"/><line style="stroke: #336699; stroke-width: 1.5;" x1="653.5" x2="878.5" y1="787.8125" y2="787.8125"/><text fill="#000000" font-family="sans-serif" font-size="11" lengthAdjust="spacingAndGlyphs" textLength="134" x="658.5" y="802.0229">append: writeAuditLog()</text><text fill="#000000" font-family="sans-serif" font-size="11" lengthAdjust="spacingAndGlyphs" textLength="140" x="658.5" y="814.8276">delete: cleanupOldFiles()</text><text fill="#000000" font-family="sans-serif" font-size="11" lengthAdjust="spacingAndGlyphs" textLength="137" x="658.5" y="827.6323">read:   queryAuditLogs()</text><path d="M914.5,707.9063 L914.5,776.9063 L879.61,780.9063 L914.5,784.9063 L914.5,854.1016 A0,0 0 0 0 914.5,854.1016 L1251.5,854.1016 A0,0 0 0 0 1251.5,854.1016 L1251.5,717.9063 L1241.5,707.9063 L914.5,707.9063 A0,0 0 0 0 914.5,707.9063 " fill="#FFFDE7" filter="url(#f1saa70u6ndc0v)" style="stroke: #F9A825; stroke-width: 1.0;"/><path d="M1241.5,707.9063 L1241.5,717.9063 L1251.5,717.9063 L1241.5,707.9063 " fill="#FFFDE7" style="stroke: #F9A825; stroke-width: 1.0;"/><text fill="#000000" font-family="sans-serif" font-size="13" font-weight="bold" lengthAdjust="spacingAndGlyphs" textLength="85" x="920.5" y="724.9731">ASR-SEC-10</text><text fill="#000000" font-family="sans-serif" font-size="13" lengthAdjust="spacingAndGlyphs" textLength="167" x="1005.5" y="724.9731">: 100% key actions logged</text><text fill="#000000" font-family="sans-serif" font-size="13" lengthAdjust="spacingAndGlyphs" textLength="316" x="920.5" y="740.106">Categories: AUTH, ADMIN, FILE_ACCESS, SYSTEM</text><text fill="#000000" font-family="sans-serif" font-size="13" lengthAdjust="spacingAndGlyphs" textLength="247" x="920.5" y="755.2388">Format: canonical wide-events (JSONL)</text><text fill="#000000" font-family="sans-serif" font-size="13" lengthAdjust="spacingAndGlyphs" textLength="159" x="920.5" y="770.3716">One file per calendar day</text><text fill="#000000" font-family="sans-serif" font-size="13" lengthAdjust="spacingAndGlyphs" textLength="0" x="924.5" y="785.5044"/><text fill="#000000" font-family="sans-serif" font-size="13" font-weight="bold" lengthAdjust="spacingAndGlyphs" textLength="85" x="920.5" y="800.6372">ASR-SEC-11</text><text fill="#000000" font-family="sans-serif" font-size="13" lengthAdjust="spacingAndGlyphs" textLength="139" x="1005.5" y="800.6372">: Retention &gt;= 1 year</text><text fill="#000000" font-family="sans-serif" font-size="13" lengthAdjust="spacingAndGlyphs" textLength="255" x="920.5" y="815.77">AUDIT_RETENTION_DAYS=365 (env var)</text><text fill="#000000" font-family="sans-serif" font-size="13" lengthAdjust="spacingAndGlyphs" textLength="228" x="920.5" y="830.9028">cleanupOldFiles() runs once per day</text><text fill="#000000" font-family="sans-serif" font-size="13" lengthAdjust="spacingAndGlyphs" textLength="223" x="920.5" y="846.0356">Volume survives container restarts</text><path d="M1237,246.9063 L1237,278.4063 L1201.66,282.4063 L1237,286.4063 L1237,317.4375 A0,0 0 0 0 1237,317.4375 L1533,317.4375 A0,0 0 0 0 1533,317.4375 L1533,256.9063 L1523,246.9063 L1237,246.9063 A0,0 0 0 0 1237,246.9063 " fill="#FFFDE7" filter="url(#f1saa70u6ndc0v)" style="stroke: #F9A825; stroke-width: 1.0;"/><path d="M1523,246.9063 L1523,256.9063 L1533,256.9063 L1523,246.9063 " fill="#FFFDE7" style="stroke: #F9A825; stroke-width: 1.0;"/><text fill="#000000" font-family="sans-serif" font-size="13" lengthAdjust="spacingAndGlyphs" textLength="198" x="1243" y="263.9731">Admin-only: GET /api/audit/logs</text><text fill="#000000" font-family="sans-serif" font-size="13" lengthAdjust="spacingAndGlyphs" textLength="275" x="1243" y="279.106">Guards: authenticateUser -&gt; requireAdmin</text><text fill="#000000" font-family="sans-serif" font-size="13" lengthAdjust="spacingAndGlyphs" textLength="218" x="1243" y="294.2388">Query params: from, to, category,</text><text fill="#000000" font-family="sans-serif" font-size="13" lengthAdjust="spacingAndGlyphs" textLength="199" x="1251" y="309.3716">action, userId, limit (max 5000)</text><!--MD5=[d711eb28a9290e09db0eb307991adf6b]
link AUC to WAL--><path d="M210.24,135.9863 C246.75,157.8563 292.36,185.1762 334.16,210.2162 " fill="none" id="AUC-&gt;WAL" style="stroke: #003366; stroke-width: 1.0;"/><polygon fill="#003366" points="338.46,212.7863,332.7887,204.7341,334.1688,210.2201,328.6828,211.6001,338.46,212.7863" style="stroke: #003366; stroke-width: 1.0;"/><text fill="#000000" font-family="sans-serif" font-size="13" lengthAdjust="spacingAndGlyphs" textLength="146" x="289" y="178.9731">writeAuditLog(payload)</text><!--MD5=[bc4592a280ec0d080492dcce481da074]
link MC to WAL--><path d="M453,130.0562 C453,152.0063 453,180.8362 453,207.4362 " fill="none" id="MC-&gt;WAL" style="stroke: #003366; stroke-width: 1.0;"/><polygon fill="#003366" points="453,212.7162,457,203.7162,453,207.7162,449,203.7162,453,212.7162" style="stroke: #003366; stroke-width: 1.0;"/><text fill="#000000" font-family="sans-serif" font-size="13" lengthAdjust="spacingAndGlyphs" textLength="146" x="454" y="178.9731">writeAuditLog(payload)</text><!--MD5=[f5f4fb633701dd446cdcc49a87ef7d20]
link AMD to WAL--><path d="M720.12,123.4063 C680.85,146.6363 624.45,179.9963 573.58,210.0862 " fill="none" id="AMD-&gt;WAL" style="stroke: #003366; stroke-width: 1.0;"/><polygon fill="#003366" points="568.99,212.7963,578.7729,211.6581,573.2938,210.2512,574.7007,204.7721,568.99,212.7963" style="stroke: #003366; stroke-width: 1.0;"/><text fill="#000000" font-family="sans-serif" font-size="13" lengthAdjust="spacingAndGlyphs" textLength="146" x="641" y="178.9731">writeAuditLog(payload)</text><!--MD5=[9a09cb92441fe93f8e60165ef6a75e15]
link WAL to ENTRY--><path d="M453,352.1163 C453,374.2363 453,399.2763 453,423.4063 " fill="none" id="WAL-&gt;ENTRY" style="stroke: #003366; stroke-width: 1.0;"/><polygon fill="#003366" points="453,428.5363,457,419.5363,453,423.5363,449,419.5363,453,428.5363" style="stroke: #003366; stroke-width: 1.0;"/><text fill="#000000" font-family="sans-serif" font-size="13" lengthAdjust="spacingAndGlyphs" textLength="75" x="454" y="394.9731">instantiates</text><!--MD5=[bde91fac2c7c2fab5b11d712a877d9c6]
link WAL to CLEAN--><path d="M540.6,352.1163 C586.86,388.3963 643.15,432.5563 687.91,467.6563 " fill="none" id="WAL-&gt;CLEAN" style="stroke: #003366; stroke-width: 1.0;"/><polygon fill="#003366" points="691.93,470.8063,687.3077,462.1095,687.9925,467.7247,682.3772,468.4095,691.93,470.8063" style="stroke: #003366; stroke-width: 1.0;"/><text fill="#000000" font-family="sans-serif" font-size="13" lengthAdjust="spacingAndGlyphs" textLength="111" x="602" y="394.9731">triggers once/day</text><!--MD5=[bbd74dd14f2e6f9927d3b0e1680982ae]
link WAL to LOGVOL--><path d="M293.38,339.0963 C254.05,360.8063 216.73,390.0663 194,428.9063 C148.65,506.3863 139.1,559.8763 194,630.9063 C248.93,701.9762 496.18,745.5163 647.06,765.9463 " fill="none" id="WAL-&gt;LOGVOL" style="stroke: #003366; stroke-width: 1.0;"/><polygon fill="#003366" points="652.39,766.6663,644.0083,761.4945,647.4352,765.9951,642.9346,769.4221,652.39,766.6663" style="stroke: #003366; stroke-width: 1.0;"/><text fill="#000000" font-family="sans-serif" font-size="13" lengthAdjust="spacingAndGlyphs" textLength="94" x="195" y="534.4731">fs.appendFile()</text><!--MD5=[fa5dcaebb2e35e7fadb01fe7ca66f63b]
link CLEAN to LOGVOL--><path d="M766,588.9762 C766,629.1263 766,682.3363 766,722.3763 " fill="none" id="CLEAN-&gt;LOGVOL" style="stroke: #003366; stroke-width: 1.0;"/><polygon fill="#003366" points="766,727.6863,770,718.6863,766,722.6863,762,718.6863,766,727.6863" style="stroke: #003366; stroke-width: 1.0;"/><text fill="#000000" font-family="sans-serif" font-size="13" lengthAdjust="spacingAndGlyphs" textLength="152" x="767" y="673.9731">fs.unlink() [expired files]</text><!--MD5=[ed093af0da9e925636650fc32f1f9e94]
link AC to QUERY--><path d="M1070,342.2063 C1070,375.3363 1070,417.0763 1070,452.6863 " fill="none" id="AC-&gt;QUERY" style="stroke: #003366; stroke-width: 1.0;"/><polygon fill="#003366" points="1070,457.8963,1074,448.8963,1070,452.8963,1066,448.8963,1070,457.8963" style="stroke: #003366; stroke-width: 1.0;"/><text fill="#000000" font-family="sans-serif" font-size="13" lengthAdjust="spacingAndGlyphs" textLength="145" x="1071" y="394.9731">queryAuditLogs(query)</text><!--MD5=[b4e96477f5f05d6da32cb7a9377608b9]
link QUERY to LOGVOL--><path d="M1007.81,602.0863 C984.06,627.3863 955.95,655.1963 928,677.9063 C907.57,694.5063 884.27,710.6063 861.83,724.9163 " fill="none" id="QUERY-&gt;LOGVOL" style="stroke: #003366; stroke-width: 1.0;"/><polygon fill="#003366" points="857.35,727.7563,867.0952,726.331,861.5771,725.0857,862.8224,719.5677,857.35,727.7563" style="stroke: #003366; stroke-width: 1.0;"/><text fill="#000000" font-family="sans-serif" font-size="13" lengthAdjust="spacingAndGlyphs" textLength="75" x="946" y="673.9731">fs.readFile()</text><!--MD5=[6e991f17cc45bd99cd3cdd1575b3c0a9]
@startuml C4_L4_Audit_Logging
title C4 Level 4 — Audit Logging System\n(ASR-SEC-10, ASR-SEC-11)

skinparam backgroundColor #FAFAFA
skinparam classAttributeIconSize 0
skinparam class {
    BackgroundColor #DDEEFF
    BorderColor #336699
    ArrowColor #003366
    FontName Arial
}
skinparam note {
    BackgroundColor #FFFDE7
    BorderColor #F9A825
}

class "AuthController" as AUC {
    register() => AUTH/REGISTER_SUCCESS
    login()     => AUTH/LOGIN_SUCCESS | FAILED
    logout()    => AUTH/LOGOUT
}

class "MaterialsController" as MC {
    getMaterials() => FILE_ACCESS/MATERIAL_READ
    create()       => FILE_ACCESS/MATERIAL_UPLOAD
}

class "AuthMiddleware.requireAdmin()" as AMD {
    check() => ADMIN/ACCESS_GRANTED | DENIED
}

class "writeAuditLog(payload)\n<<util/auditLogger>>" as WAL {
    payload: Omit<AuditLogEntry, "timestamp">
    ..
    write(payload)
    - -
    1. ensureAuditDir()
    2. cleanupOldFiles() [once/day]
    3. path = AUDIT_LOG_DIR / YYYY-MM-DD.log
    4. fs.appendFile(path, JSON.stringify(entry) + newline)
}

class "AuditLogEntry" as ENTRY {
    timestamp: ISO-8601
    category: AUTH | ADMIN | FILE_ACCESS | SYSTEM
    action: string
    success: boolean
    userId?: string
    ip?: string
    method?: string
    path?: string
    statusCode?: number
    resourceType?: string
    resourceId?: string
    metadata?: Record<string, unknown>
}

class "cleanupOldFiles()\n<<scheduled: once/day>>" as CLEAN {
    run()
    - -
    files = fs.readdir(AUDIT_LOG_DIR)
    cutoff = now - AUDIT_RETENTION_DAYS days
    files where date < cutoff => fs.unlink()
    [ASR-SEC-11: default 365 days]
}

class "queryAuditLogs(query)\n<<util/auditLogger>>" as QUERY {
    query(from, to, category, action, userId, limit)
    - -
    eachDay(from, to).map(getFilePath)
    fs.readFile each day file
    JSON.parse each JSONL line
    filter by query params
    sort desc by timestamp
    slice(0, min(limit, 5000))
}

class "AuditController\nGET /api/audit/logs\n<<admin-only>>" as AC {
    getLogs(req, res)
    - -
    [requireAdmin guard]
    queryAuditLogs(req.query)
    return {logs, total, from, to, retentionDays}
}

class "server-logs Docker Volume\n/app/logs/audit/YYYY-MM-DD.log\n<<append-only JSONL>>" as LOGVOL {
    append: writeAuditLog()
    delete: cleanupOldFiles()
    read:   queryAuditLogs()
}

AUC - -> WAL : writeAuditLog(payload)
MC - -> WAL : writeAuditLog(payload)
AMD - -> WAL : writeAuditLog(payload)
WAL - -> ENTRY : instantiates
WAL - -> CLEAN : triggers once/day
WAL - -> LOGVOL : fs.appendFile()
CLEAN - -> LOGVOL : fs.unlink() [expired files]
AC - -> QUERY : queryAuditLogs(query)
QUERY - -> LOGVOL : fs.readFile()

note right of LOGVOL
  <b>ASR-SEC-10</b>: 100% key actions logged
  Categories: AUTH, ADMIN, FILE_ACCESS, SYSTEM
  Format: canonical wide-events (JSONL)
  One file per calendar day

  <b>ASR-SEC-11</b>: Retention >= 1 year
  AUDIT_RETENTION_DAYS=365 (env var)
  cleanupOldFiles() runs once per day
  Volume survives container restarts
end note

note right of AC
  Admin-only: GET /api/audit/logs
  Guards: authenticateUser -> requireAdmin
  Query params: from, to, category,
    action, userId, limit (max 5000)
end note
@enduml

PlantUML version 1.2020.02(Sun Mar 01 10:22:07 UTC 2020)
(GPL source distribution)
Java Runtime: OpenJDK Runtime Environment
JVM: OpenJDK 64-Bit Server VM
Java Version: 21.0.10+7-Ubuntu-124.04
Operating System: Linux
Default Encoding: UTF-8
Language: en
Country: US
--></g></svg>