<?xml version="1.0" encoding="UTF-8" standalone="no"?><svg xmlns="http://www.w3.org/2000/svg" xmlns:xlink="http://www.w3.org/1999/xlink" contentScriptType="application/ecmascript" contentStyleType="text/css" height="810px" preserveAspectRatio="none" style="width:1151px;height:810px;background:#FAFAFA;" version="1.1" viewBox="0 0 1151 810" width="1151px" zoomAndPan="magnify"><defs><filter height="300%" id="fb9wfsrfbr7gr" width="300%" x="-1" y="-1"><feGaussianBlur result="blurOut" stdDeviation="2.0"/><feColorMatrix in="blurOut" result="blurOut2" type="matrix" values="0 0 0 0 0 0 0 0 0 0 0 0 0 0 0 0 0 0 .4 0"/><feOffset dx="4.0" dy="4.0" in="blurOut2" result="blurOut3"/><feBlend in="SourceGraphic" in2="blurOut3" mode="normal"/></filter></defs><g><text fill="#000000" font-family="sans-serif" font-size="18" lengthAdjust="spacingAndGlyphs" textLength="501" x="331" y="16.708">C4 Level 4 — Database Query Optimisation &amp; Pagination</text><text fill="#000000" font-family="sans-serif" font-size="18" lengthAdjust="spacingAndGlyphs" textLength="250" x="456.5" y="37.6611">(ASR-PERF-02, ASR-SEC-09)</text><!--MD5=[ea47823d6e0a299289bc01fbc87289c3]
cluster Node.js API — Query Layer--><polygon fill="#EEF4FF" filter="url(#fb9wfsrfbr7gr)" points="22,65.9063,238,65.9063,245,88.2031,1129,88.2031,1129,234.9063,22,234.9063,22,65.9063" style="stroke: #000000; stroke-width: 1.5;"/><line style="stroke: #000000; stroke-width: 1.5;" x1="22" x2="245" y1="88.2031" y2="88.2031"/><text fill="#000000" font-family="sans-serif" font-size="14" font-weight="bold" lengthAdjust="spacingAndGlyphs" textLength="210" x="26" y="80.9014">Node.js API — Query Layer</text><!--MD5=[f67c9ad0330f42547177fcc40d5eda2d]
cluster Prisma ORM Layer\n(Parameterized Queries — ASR-SEC-09)--><polygon fill="#E8F5E9" filter="url(#fb9wfsrfbr7gr)" points="88,283.9063,405,283.9063,412,322.5,1035,322.5,1035,482.9063,88,482.9063,88,283.9063" style="stroke: #000000; stroke-width: 1.5;"/><line style="stroke: #000000; stroke-width: 1.5;" x1="88" x2="412" y1="322.5" y2="322.5"/><text fill="#000000" font-family="sans-serif" font-size="14" font-weight="bold" lengthAdjust="spacingAndGlyphs" textLength="142" x="176.5" y="298.9014">Prisma ORM Layer</text><text fill="#000000" font-family="sans-serif" font-size="14" font-weight="bold" lengthAdjust="spacingAndGlyphs" textLength="311" x="92" y="315.1982">(Parameterized Queries — ASR-SEC-09)</text><!--MD5=[6aecd51c4208337097d56a0a23607946]
class CC--><rect fill="#DDEEFF" filter="url(#fb9wfsrfbr7gr)" height="117.9609" id="CC" style="stroke: #336699; stroke-width: 1.5;" width="220" x="38" y="100.9063"/><ellipse cx="87.75" cy="119.875" fill="#ADD1B2" rx="11" ry="11" style="stroke: #336699; stroke-width: 1.0;"/><path d="M90.7188,125.5156 Q90.1406,125.8125 89.5,125.9531 Q88.8594,126.1094 88.1563,126.1094 Q85.6563,126.1094 84.3281,124.4688 Q83.0156,122.8125 83.0156,119.6875 Q83.0156,116.5625 84.3281,114.9063 Q85.6563,113.25 88.1563,113.25 Q88.8594,113.25 89.5,113.4063 Q90.1563,113.5625 90.7188,113.8594 L90.7188,116.5781 Q90.0938,116 89.5,115.7344 Q88.9063,115.4531 88.2813,115.4531 Q86.9375,115.4531 86.25,116.5313 Q85.5625,117.5938 85.5625,119.6875 Q85.5625,121.7813 86.25,122.8594 Q86.9375,123.9219 88.2813,123.9219 Q88.9063,123.9219 89.5,123.6563 Q90.0938,123.375 90.7188,122.7969 L90.7188,125.5156 Z "/><text fill="#000000" font-family="Arial" font-size="12" lengthAdjust="spacingAndGlyphs" textLength="112" x="108.25" y="117.0449">CoursesController</text><text fill="#000000" font-family="Arial" font-size="12" lengthAdjust="spacingAndGlyphs" textLength="105" x="111.75" y="131.0137">GET /api/courses</text><line style="stroke: #336699; stroke-width: 1.5;" x1="39" x2="257" y1="138.8438" y2="138.8438"/><text fill="#000000" font-family="sans-serif" font-size="11" lengthAdjust="spacingAndGlyphs" textLength="80" x="44" y="153.0542">+list(req, res)</text><line style="stroke: #336699; stroke-width: 1.0;" x1="39" x2="257" y1="159.6484" y2="159.6484"/><text fill="#000000" font-family="sans-serif" font-size="11" lengthAdjust="spacingAndGlyphs" textLength="208" x="44" y="173.8589">page = Number(req.query.page) || 1</text><text fill="#000000" font-family="sans-serif" font-size="11" lengthAdjust="spacingAndGlyphs" textLength="207" x="44" y="186.6636">limit = Number(req.query.limit) || 10</text><text fill="#000000" font-family="sans-serif" font-size="11" lengthAdjust="spacingAndGlyphs" textLength="133" x="44" y="199.4683">skip = (page - 1) * limit</text><text fill="#000000" font-family="sans-serif" font-size="11" lengthAdjust="spacingAndGlyphs" textLength="191" x="44" y="212.2729">CoursesService.findAll(skip, limit)</text><!--MD5=[a83c9ba48c371dd6dc355a17ccaf4e12]
class CLC--><rect fill="#DDEEFF" filter="url(#fb9wfsrfbr7gr)" height="105.1563" id="CLC" style="stroke: #336699; stroke-width: 1.5;" width="246" x="293" y="107.4063"/><ellipse cx="326" cy="126.375" fill="#ADD1B2" rx="11" ry="11" style="stroke: #336699; stroke-width: 1.0;"/><path d="M328.9688,132.0156 Q328.3906,132.3125 327.75,132.4531 Q327.1094,132.6094 326.4063,132.6094 Q323.9063,132.6094 322.5781,130.9688 Q321.2656,129.3125 321.2656,126.1875 Q321.2656,123.0625 322.5781,121.4063 Q323.9063,119.75 326.4063,119.75 Q327.1094,119.75 327.75,119.9063 Q328.4063,120.0625 328.9688,120.3594 L328.9688,123.0781 Q328.3438,122.5 327.75,122.2344 Q327.1563,121.9531 326.5313,121.9531 Q325.1875,121.9531 324.5,123.0313 Q323.8125,124.0938 323.8125,126.1875 Q323.8125,128.2813 324.5,129.3594 Q325.1875,130.4219 326.5313,130.4219 Q327.1563,130.4219 327.75,130.1563 Q328.3438,129.875 328.9688,129.2969 L328.9688,132.0156 Z "/><text fill="#000000" font-family="Arial" font-size="12" lengthAdjust="spacingAndGlyphs" textLength="109" x="376.5" y="123.5449">ClassesController</text><text fill="#000000" font-family="Arial" font-size="12" lengthAdjust="spacingAndGlyphs" textLength="174" x="344" y="137.5137">GET /api/classes/teacher/:id</text><line style="stroke: #336699; stroke-width: 1.5;" x1="294" x2="538" y1="145.3438" y2="145.3438"/><text fill="#000000" font-family="sans-serif" font-size="11" lengthAdjust="spacingAndGlyphs" textLength="122" x="299" y="159.5542">+byTeacher(req, res)</text><line style="stroke: #336699; stroke-width: 1.0;" x1="294" x2="538" y1="166.1484" y2="166.1484"/><text fill="#000000" font-family="sans-serif" font-size="11" lengthAdjust="spacingAndGlyphs" textLength="151" x="299" y="180.3589">teacherId = req.params.id</text><text fill="#000000" font-family="sans-serif" font-size="11" lengthAdjust="spacingAndGlyphs" textLength="234" x="299" y="193.1636">ClassesService.findByTeacher(teacherId)</text><text fill="#000000" font-family="sans-serif" font-size="11" lengthAdjust="spacingAndGlyphs" textLength="155" x="299" y="205.9683">[uses @@index(teacherId)]</text><!--MD5=[790d3997ce73a9893602e6136cfdecd7]
class MAC--><rect fill="#DDEEFF" filter="url(#fb9wfsrfbr7gr)" height="105.1563" id="MAC" style="stroke: #336699; stroke-width: 1.5;" width="225" x="574.5" y="107.4063"/><ellipse cx="600.75" cy="126.375" fill="#ADD1B2" rx="11" ry="11" style="stroke: #336699; stroke-width: 1.0;"/><path d="M603.7188,132.0156 Q603.1406,132.3125 602.5,132.4531 Q601.8594,132.6094 601.1563,132.6094 Q598.6563,132.6094 597.3281,130.9688 Q596.0156,129.3125 596.0156,126.1875 Q596.0156,123.0625 597.3281,121.4063 Q598.6563,119.75 601.1563,119.75 Q601.8594,119.75 602.5,119.9063 Q603.1563,120.0625 603.7188,120.3594 L603.7188,123.0781 Q603.0938,122.5 602.5,122.2344 Q601.9063,121.9531 601.2813,121.9531 Q599.9375,121.9531 599.25,123.0313 Q598.5625,124.0938 598.5625,126.1875 Q598.5625,128.2813 599.25,129.3594 Q599.9375,130.4219 601.2813,130.4219 Q601.9063,130.4219 602.5,130.1563 Q603.0938,129.875 603.7188,129.2969 L603.7188,132.0156 Z "/><text fill="#000000" font-family="Arial" font-size="12" lengthAdjust="spacingAndGlyphs" textLength="118" x="642.25" y="123.5449">MaterialsController</text><text fill="#000000" font-family="Arial" font-size="12" lengthAdjust="spacingAndGlyphs" textLength="168" x="617.25" y="137.5137">GET /api/materials/class/:id</text><line style="stroke: #336699; stroke-width: 1.5;" x1="575.5" x2="798.5" y1="145.3438" y2="145.3438"/><text fill="#000000" font-family="sans-serif" font-size="11" lengthAdjust="spacingAndGlyphs" textLength="108" x="580.5" y="159.5542">+byClass(req, res)</text><line style="stroke: #336699; stroke-width: 1.0;" x1="575.5" x2="798.5" y1="166.1484" y2="166.1484"/><text fill="#000000" font-family="sans-serif" font-size="11" lengthAdjust="spacingAndGlyphs" textLength="138" x="580.5" y="180.3589">classId = req.params.id</text><text fill="#000000" font-family="sans-serif" font-size="11" lengthAdjust="spacingAndGlyphs" textLength="213" x="580.5" y="193.1636">MaterialsService.findByClass(classId)</text><text fill="#000000" font-family="sans-serif" font-size="11" lengthAdjust="spacingAndGlyphs" textLength="142" x="580.5" y="205.9683">[uses @@index(classId)]</text><!--MD5=[aa48e436f5824d5defd31eb2cb6408f3]
class ASC--><rect fill="#DDEEFF" filter="url(#fb9wfsrfbr7gr)" height="105.1563" id="ASC" style="stroke: #336699; stroke-width: 1.5;" width="278" x="835" y="107.4063"/><ellipse cx="867.55" cy="126.375" fill="#ADD1B2" rx="11" ry="11" style="stroke: #336699; stroke-width: 1.0;"/><path d="M870.5188,132.0156 Q869.9406,132.3125 869.3,132.4531 Q868.6594,132.6094 867.9563,132.6094 Q865.4563,132.6094 864.1281,130.9688 Q862.8156,129.3125 862.8156,126.1875 Q862.8156,123.0625 864.1281,121.4063 Q865.4563,119.75 867.9563,119.75 Q868.6594,119.75 869.3,119.9063 Q869.9563,120.0625 870.5188,120.3594 L870.5188,123.0781 Q869.8938,122.5 869.3,122.2344 Q868.7063,121.9531 868.0813,121.9531 Q866.7375,121.9531 866.05,123.0313 Q865.3625,124.0938 865.3625,126.1875 Q865.3625,128.2813 866.05,129.3594 Q866.7375,130.4219 868.0813,130.4219 Q868.7063,130.4219 869.3,130.1563 Q869.8938,129.875 870.5188,129.2969 L870.5188,132.0156 Z "/><text fill="#000000" font-family="Arial" font-size="12" lengthAdjust="spacingAndGlyphs" textLength="141" x="918.45" y="123.5449">AssignmentsController</text><text fill="#000000" font-family="Arial" font-size="12" lengthAdjust="spacingAndGlyphs" textLength="207" x="885.45" y="137.5137">GET /api/assignments/teacher/:id</text><line style="stroke: #336699; stroke-width: 1.5;" x1="836" x2="1112" y1="145.3438" y2="145.3438"/><text fill="#000000" font-family="sans-serif" font-size="11" lengthAdjust="spacingAndGlyphs" textLength="122" x="841" y="159.5542">+byTeacher(req, res)</text><line style="stroke: #336699; stroke-width: 1.0;" x1="836" x2="1112" y1="166.1484" y2="166.1484"/><text fill="#000000" font-family="sans-serif" font-size="11" lengthAdjust="spacingAndGlyphs" textLength="155" x="841" y="180.3589">createdBy = req.params.id</text><text fill="#000000" font-family="sans-serif" font-size="11" lengthAdjust="spacingAndGlyphs" textLength="266" x="841" y="193.1636">AssignmentsService.findByTeacher(createdBy)</text><text fill="#000000" font-family="sans-serif" font-size="11" lengthAdjust="spacingAndGlyphs" textLength="159" x="841" y="205.9683">[uses @@index(createdBy)]</text><!--MD5=[526893725e9296efc3cc80206e070e3d]
class PCC--><rect fill="#DDEEFF" filter="url(#fb9wfsrfbr7gr)" height="117.9609" id="PCC" style="stroke: #336699; stroke-width: 1.5;" width="204" x="104" y="341.9063"/><ellipse cx="157.25" cy="360.875" fill="#ADD1B2" rx="11" ry="11" style="stroke: #336699; stroke-width: 1.0;"/><path d="M160.2188,366.5156 Q159.6406,366.8125 159,366.9531 Q158.3594,367.1094 157.6563,367.1094 Q155.1563,367.1094 153.8281,365.4688 Q152.5156,363.8125 152.5156,360.6875 Q152.5156,357.5625 153.8281,355.9063 Q155.1563,354.25 157.6563,354.25 Q158.3594,354.25 159,354.4063 Q159.6563,354.5625 160.2188,354.8594 L160.2188,357.5781 Q159.5938,357 159,356.7344 Q158.4063,356.4531 157.7813,356.4531 Q156.4375,356.4531 155.75,357.5313 Q155.0625,358.5938 155.0625,360.6875 Q155.0625,362.7813 155.75,363.8594 Q156.4375,364.9219 157.7813,364.9219 Q158.4063,364.9219 159,364.6563 Q159.5938,364.375 160.2188,363.7969 L160.2188,366.5156 Z "/><text fill="#000000" font-family="Arial" font-size="12" lengthAdjust="spacingAndGlyphs" textLength="89" x="177.75" y="358.0449">prisma.course</text><text fill="#000000" font-family="Arial" font-size="12" lengthAdjust="spacingAndGlyphs" textLength="69" x="187.75" y="372.0137">.findMany()</text><line style="stroke: #336699; stroke-width: 1.5;" x1="105" x2="307" y1="379.8438" y2="379.8438"/><text fill="#000000" font-family="sans-serif" font-size="11" lengthAdjust="spacingAndGlyphs" textLength="189" x="110" y="394.0542">+findMany({skip, take, orderBy})</text><line style="stroke: #336699; stroke-width: 1.0;" x1="105" x2="307" y1="400.6484" y2="400.6484"/><text fill="#000000" font-family="sans-serif" font-size="11" lengthAdjust="spacingAndGlyphs" textLength="174" x="110" y="414.8589">SQL: SELECT * FROM "Course"</text><text fill="#000000" font-family="sans-serif" font-size="11" lengthAdjust="spacingAndGlyphs" textLength="160" x="110" y="427.6636">ORDER BY "createdAt" DESC</text><text fill="#000000" font-family="sans-serif" font-size="11" lengthAdjust="spacingAndGlyphs" textLength="144" x="110" y="440.4683">LIMIT $take OFFSET $skip</text><text fill="#000000" font-family="sans-serif" font-size="11" lengthAdjust="spacingAndGlyphs" textLength="192" x="110" y="453.2729">→ parameterized, no interpolation</text><!--MD5=[b3523cb582313bab8a559ace6e545954]
class PCLC--><rect fill="#DDEEFF" filter="url(#fb9wfsrfbr7gr)" height="131.9297" id="PCLC" style="stroke: #336699; stroke-width: 1.5;" width="203" x="343.5" y="334.9063"/><ellipse cx="377.4" cy="360.8594" fill="#ADD1B2" rx="11" ry="11" style="stroke: #336699; stroke-width: 1.0;"/><path d="M380.3688,366.5 Q379.7906,366.7969 379.15,366.9375 Q378.5094,367.0938 377.8063,367.0938 Q375.3063,367.0938 373.9781,365.4531 Q372.6656,363.7969 372.6656,360.6719 Q372.6656,357.5469 373.9781,355.8906 Q375.3063,354.2344 377.8063,354.2344 Q378.5094,354.2344 379.15,354.3906 Q379.8063,354.5469 380.3688,354.8438 L380.3688,357.5625 Q379.7438,356.9844 379.15,356.7188 Q378.5563,356.4375 377.9313,356.4375 Q376.5875,356.4375 375.9,357.5156 Q375.2125,358.5781 375.2125,360.6719 Q375.2125,362.7656 375.9,363.8438 Q376.5875,364.9063 377.9313,364.9063 Q378.5563,364.9063 379.15,364.6406 Q379.7438,364.3594 380.3688,363.7813 L380.3688,366.5 Z "/><text fill="#000000" font-family="Arial" font-size="12" lengthAdjust="spacingAndGlyphs" textLength="78" x="421.1" y="351.0449">prisma.class</text><text fill="#000000" font-family="Arial" font-size="12" lengthAdjust="spacingAndGlyphs" textLength="69" x="425.6" y="365.0137">.findMany()</text><text fill="#000000" font-family="Arial" font-size="12" lengthAdjust="spacingAndGlyphs" textLength="129" x="395.6" y="378.9824">@@index(teacherId)</text><line style="stroke: #336699; stroke-width: 1.5;" x1="344.5" x2="545.5" y1="386.8125" y2="386.8125"/><text fill="#000000" font-family="sans-serif" font-size="11" lengthAdjust="spacingAndGlyphs" textLength="191" x="349.5" y="401.0229">+findMany({where: {teacherId}})</text><line style="stroke: #336699; stroke-width: 1.0;" x1="344.5" x2="545.5" y1="407.6172" y2="407.6172"/><text fill="#000000" font-family="sans-serif" font-size="11" lengthAdjust="spacingAndGlyphs" textLength="165" x="349.5" y="421.8276">SQL: SELECT * FROM "Class"</text><text fill="#000000" font-family="sans-serif" font-size="11" lengthAdjust="spacingAndGlyphs" textLength="136" x="349.5" y="434.6323">WHERE "teacherId" = $1</text><text fill="#000000" font-family="sans-serif" font-size="11" lengthAdjust="spacingAndGlyphs" textLength="167" x="349.5" y="447.437">→ B-tree index on "teacherId"</text><text fill="#000000" font-family="sans-serif" font-size="11" lengthAdjust="spacingAndGlyphs" textLength="175" x="349.5" y="460.2417">→ O(log n) lookup vs O(n) scan</text><!--MD5=[904927a90bfb39b1c101aab266515cc9]
class PMAC--><rect fill="#DDEEFF" filter="url(#fb9wfsrfbr7gr)" height="131.9297" id="PMAC" style="stroke: #336699; stroke-width: 1.5;" width="190" x="582" y="334.9063"/><ellipse cx="617.7" cy="360.8594" fill="#ADD1B2" rx="11" ry="11" style="stroke: #336699; stroke-width: 1.0;"/><path d="M620.6688,366.5 Q620.0906,366.7969 619.45,366.9375 Q618.8094,367.0938 618.1063,367.0938 Q615.6063,367.0938 614.2781,365.4531 Q612.9656,363.7969 612.9656,360.6719 Q612.9656,357.5469 614.2781,355.8906 Q615.6063,354.2344 618.1063,354.2344 Q618.8094,354.2344 619.45,354.3906 Q620.1063,354.5469 620.6688,354.8438 L620.6688,357.5625 Q620.0438,356.9844 619.45,356.7188 Q618.8563,356.4375 618.2313,356.4375 Q616.8875,356.4375 616.2,357.5156 Q615.5125,358.5781 615.5125,360.6719 Q615.5125,362.7656 616.2,363.8438 Q616.8875,364.9063 618.2313,364.9063 Q618.8563,364.9063 619.45,364.6406 Q620.0438,364.3594 620.6688,363.7813 L620.6688,366.5 Z "/><text fill="#000000" font-family="Arial" font-size="12" lengthAdjust="spacingAndGlyphs" textLength="97" x="643.8" y="351.0449">prisma.material</text><text fill="#000000" font-family="Arial" font-size="12" lengthAdjust="spacingAndGlyphs" textLength="69" x="657.8" y="365.0137">.findMany()</text><text fill="#000000" font-family="Arial" font-size="12" lengthAdjust="spacingAndGlyphs" textLength="112" x="636.3" y="378.9824">@@index(classId)</text><line style="stroke: #336699; stroke-width: 1.5;" x1="583" x2="771" y1="386.8125" y2="386.8125"/><text fill="#000000" font-family="sans-serif" font-size="11" lengthAdjust="spacingAndGlyphs" textLength="178" x="588" y="401.0229">+findMany({where: {classId}})</text><line style="stroke: #336699; stroke-width: 1.0;" x1="583" x2="771" y1="407.6172" y2="407.6172"/><text fill="#000000" font-family="sans-serif" font-size="11" lengthAdjust="spacingAndGlyphs" textLength="178" x="588" y="421.8276">SQL: SELECT * FROM "Material"</text><text fill="#000000" font-family="sans-serif" font-size="11" lengthAdjust="spacingAndGlyphs" textLength="123" x="588" y="434.6323">WHERE "classId" = $1</text><text fill="#000000" font-family="sans-serif" font-size="11" lengthAdjust="spacingAndGlyphs" textLength="154" x="588" y="447.437">→ B-tree index on "classId"</text><text fill="#000000" font-family="sans-serif" font-size="11" lengthAdjust="spacingAndGlyphs" textLength="159" x="588" y="460.2417">→ AND @@index(createdBy)</text><!--MD5=[20109ca5ebb65a00508d734cf07acf61]
class PASC--><rect fill="#DDEEFF" filter="url(#fb9wfsrfbr7gr)" height="119.125" id="PASC" style="stroke: #336699; stroke-width: 1.5;" width="212" x="807" y="341.4063"/><ellipse cx="843.6" cy="367.3594" fill="#ADD1B2" rx="11" ry="11" style="stroke: #336699; stroke-width: 1.0;"/><path d="M846.5688,373 Q845.9906,373.2969 845.35,373.4375 Q844.7094,373.5938 844.0063,373.5938 Q841.5063,373.5938 840.1781,371.9531 Q838.8656,370.2969 838.8656,367.1719 Q838.8656,364.0469 840.1781,362.3906 Q841.5063,360.7344 844.0063,360.7344 Q844.7094,360.7344 845.35,360.8906 Q846.0063,361.0469 846.5688,361.3438 L846.5688,364.0625 Q845.9438,363.4844 845.35,363.2188 Q844.7563,362.9375 844.1313,362.9375 Q842.7875,362.9375 842.1,364.0156 Q841.4125,365.0781 841.4125,367.1719 Q841.4125,369.2656 842.1,370.3438 Q842.7875,371.4063 844.1313,371.4063 Q844.7563,371.4063 845.35,371.1406 Q845.9438,370.8594 846.5688,370.2813 L846.5688,373 Z "/><text fill="#000000" font-family="Arial" font-size="12" lengthAdjust="spacingAndGlyphs" textLength="119" x="868.9" y="357.5449">prisma.assignment</text><text fill="#000000" font-family="Arial" font-size="12" lengthAdjust="spacingAndGlyphs" textLength="69" x="893.9" y="371.5137">.findMany()</text><text fill="#000000" font-family="Arial" font-size="12" lengthAdjust="spacingAndGlyphs" textLength="132" x="862.4" y="385.4824">@@index(createdBy)</text><line style="stroke: #336699; stroke-width: 1.5;" x1="808" x2="1018" y1="393.3125" y2="393.3125"/><text fill="#000000" font-family="sans-serif" font-size="11" lengthAdjust="spacingAndGlyphs" textLength="195" x="813" y="407.5229">+findMany({where: {createdBy}})</text><line style="stroke: #336699; stroke-width: 1.0;" x1="808" x2="1018" y1="414.1172" y2="414.1172"/><text fill="#000000" font-family="sans-serif" font-size="11" lengthAdjust="spacingAndGlyphs" textLength="200" x="813" y="428.3276">SQL: SELECT * FROM "Assignment"</text><text fill="#000000" font-family="sans-serif" font-size="11" lengthAdjust="spacingAndGlyphs" textLength="140" x="813" y="441.1323">WHERE "createdBy" = $1</text><text fill="#000000" font-family="sans-serif" font-size="11" lengthAdjust="spacingAndGlyphs" textLength="171" x="813" y="453.937">→ B-tree index on "createdBy"</text><!--MD5=[f6b3c4ec609d704a8f29c3992fcc8101]
entity PG--><path d="M469.5,650.9063 C469.5,640.9063 560,640.9063 560,640.9063 C560,640.9063 650.5,640.9063 650.5,650.9063 L650.5,692.5 C650.5,702.5 560,702.5 560,702.5 C560,702.5 469.5,702.5 469.5,692.5 L469.5,650.9063 " fill="#C5CAE9" filter="url(#fb9wfsrfbr7gr)" style="stroke: #5C6BC0; stroke-width: 1.5;"/><path d="M469.5,650.9063 C469.5,660.9063 560,660.9063 560,660.9063 C560,660.9063 650.5,660.9063 650.5,650.9063 " fill="none" style="stroke: #5C6BC0; stroke-width: 1.5;"/><text fill="#000000" font-family="sans-serif" font-size="14" lengthAdjust="spacingAndGlyphs" textLength="103" x="479.5" y="677.9014">PostgreSQL 16</text><text fill="#000000" font-family="sans-serif" font-size="14" lengthAdjust="spacingAndGlyphs" textLength="161" x="479.5" y="694.1982">(postgres-data volume)</text><path d="M685.5,545.9063 L685.5,798.0313 L1036.5,798.0313 L1036.5,555.9063 L1026.5,545.9063 L685.5,545.9063 " fill="#FFFDE7" filter="url(#fb9wfsrfbr7gr)" style="stroke: #F9A825; stroke-width: 1.0;"/><path d="M1026.5,545.9063 L1026.5,555.9063 L1036.5,555.9063 L1026.5,545.9063 " fill="#FFFDE7" style="stroke: #F9A825; stroke-width: 1.0;"/><text fill="#000000" font-family="sans-serif" font-size="13" font-weight="bold" lengthAdjust="spacingAndGlyphs" textLength="227" x="691.5" y="562.9731">Indexes (from schema.prisma)</text><text fill="#000000" font-family="sans-serif" font-size="13" lengthAdjust="spacingAndGlyphs" textLength="4" x="918.5" y="562.9731">:</text><text fill="#000000" font-family="sans-serif" font-size="13" lengthAdjust="spacingAndGlyphs" textLength="178" x="691.5" y="578.106">Class.@@index([teacherId])</text><text fill="#000000" font-family="sans-serif" font-size="13" lengthAdjust="spacingAndGlyphs" textLength="225" x="691.5" y="593.2388">Assignment.@@index([createdBy])</text><text fill="#000000" font-family="sans-serif" font-size="13" lengthAdjust="spacingAndGlyphs" textLength="210" x="691.5" y="608.3716">Feedback.@@index([createdBy])</text><text fill="#000000" font-family="sans-serif" font-size="13" lengthAdjust="spacingAndGlyphs" textLength="178" x="691.5" y="623.5044">Material.@@index([classId])</text><text fill="#000000" font-family="sans-serif" font-size="13" lengthAdjust="spacingAndGlyphs" textLength="200" x="691.5" y="638.6372">Material.@@index([createdBy])</text><text fill="#000000" font-family="sans-serif" font-size="13" lengthAdjust="spacingAndGlyphs" textLength="252" x="691.5" y="653.77">Enrollment.@@unique([userId, classId])</text><text fill="#000000" font-family="sans-serif" font-size="13" lengthAdjust="spacingAndGlyphs" textLength="300" x="691.5" y="668.9028">Submission.@@unique([assignmentId, userId])</text><text fill="#000000" font-family="sans-serif" font-size="13" lengthAdjust="spacingAndGlyphs" textLength="0" x="695.5" y="684.0356"/><text fill="#000000" font-family="sans-serif" font-size="13" font-weight="bold" lengthAdjust="spacingAndGlyphs" textLength="95" x="691.5" y="699.1685">ASR-PERF-02</text><text fill="#000000" font-family="sans-serif" font-size="13" lengthAdjust="spacingAndGlyphs" textLength="169" x="786.5" y="699.1685">: &lt; 2s on 10,000+ records</text><text fill="#000000" font-family="sans-serif" font-size="13" lengthAdjust="spacingAndGlyphs" textLength="306" x="691.5" y="714.3013">Indexes reduce query time from O(n) → O(log n)</text><text fill="#000000" font-family="sans-serif" font-size="13" lengthAdjust="spacingAndGlyphs" textLength="258" x="691.5" y="729.4341">Pagination (page/limit) caps row transfer</text><text fill="#000000" font-family="sans-serif" font-size="13" lengthAdjust="spacingAndGlyphs" textLength="0" x="695.5" y="744.5669"/><text fill="#000000" font-family="sans-serif" font-size="13" font-weight="bold" lengthAdjust="spacingAndGlyphs" textLength="85" x="691.5" y="759.6997">ASR-SEC-09</text><text fill="#000000" font-family="sans-serif" font-size="13" lengthAdjust="spacingAndGlyphs" textLength="193" x="776.5" y="759.6997">: 100% parameterized queries</text><text fill="#000000" font-family="sans-serif" font-size="13" lengthAdjust="spacingAndGlyphs" textLength="301" x="691.5" y="774.8325">Prisma compiles all findMany/findUnique/create</text><text fill="#000000" font-family="sans-serif" font-size="13" lengthAdjust="spacingAndGlyphs" textLength="330" x="691.5" y="789.9653">to prepared statements — no raw SQL interpolation</text><!--MD5=[a985d3adadc5db95ad56e75362a63188]
link PG to GMN13--><path d="M650.54,671.9063 C662.18,671.9063 673.83,671.9063 685.48,671.9063 " fill="none" id="PG-GMN13" style="stroke: #003366; stroke-width: 1.0; stroke-dasharray: 7.0,7.0;"/><!--MD5=[534db5d8cd825558aad765e5761e81b3]
link CC to PCC--><path d="M162.11,219.0662 C170.78,254.7663 181.88,300.4963 190.74,337.0363 " fill="none" id="CC-&gt;PCC" style="stroke: #003366; stroke-width: 1.0;"/><polygon fill="#003366" points="191.92,341.8963,193.6715,332.2044,190.7342,337.0389,185.8997,334.1016,191.92,341.8963" style="stroke: #003366; stroke-width: 1.0;"/><text fill="#000000" font-family="sans-serif" font-size="13" lengthAdjust="spacingAndGlyphs" textLength="21" x="175" y="263.9731">call</text><!--MD5=[dad7f732befe4ee3078bd47d1722f290]
link CLC to PCLC--><path d="M422.26,212.4763 C426.42,246.7463 431.93,292.1963 436.49,329.7463 " fill="none" id="CLC-&gt;PCLC" style="stroke: #003366; stroke-width: 1.0;"/><polygon fill="#003366" points="437.09,334.7563,439.9796,325.3408,436.4892,329.7925,432.0375,326.3021,437.09,334.7563" style="stroke: #003366; stroke-width: 1.0;"/><text fill="#000000" font-family="sans-serif" font-size="13" lengthAdjust="spacingAndGlyphs" textLength="21" x="429" y="263.9731">call</text><!--MD5=[3c39bd105098254371f1ea0a9d000e4c]
link MAC to PMAC--><path d="M684.84,212.4763 C683.41,246.7463 681.51,292.1963 679.94,329.7463 " fill="none" id="MAC-&gt;PMAC" style="stroke: #003366; stroke-width: 1.0;"/><polygon fill="#003366" points="679.73,334.7563,684.1128,325.9363,679.9447,329.7609,676.1202,325.5928,679.73,334.7563" style="stroke: #003366; stroke-width: 1.0;"/><text fill="#000000" font-family="sans-serif" font-size="13" lengthAdjust="spacingAndGlyphs" textLength="21" x="684" y="263.9731">call</text><!--MD5=[3721de36439522b5eb301c37a4ff2ca1]
link ASC to PASC--><path d="M960.84,212.4763 C951.59,248.7162 939.15,297.4563 929.27,336.1363 " fill="none" id="ASC-&gt;PASC" style="stroke: #003366; stroke-width: 1.0;"/><polygon fill="#003366" points="927.96,341.2863,934.0503,333.5462,929.1895,336.4398,926.2959,331.579,927.96,341.2863" style="stroke: #003366; stroke-width: 1.0;"/><text fill="#000000" font-family="sans-serif" font-size="13" lengthAdjust="spacingAndGlyphs" textLength="21" x="951" y="263.9731">call</text><!--MD5=[fa32718da8a4c1565a30d8f81d7b3778]
link PCC to PG--><path d="M282.38,459.9463 C353.83,514.2462 458.05,593.4363 516.35,637.7363 " fill="none" id="PCC-&gt;PG" style="stroke: #003366; stroke-width: 1.0;"/><polygon fill="#003366" points="520.47,640.8663,515.7241,632.2363,516.4889,637.8412,510.884,638.606,520.47,640.8663" style="stroke: #003366; stroke-width: 1.0;"/><text fill="#000000" font-family="sans-serif" font-size="13" lengthAdjust="spacingAndGlyphs" textLength="113" x="352" y="511.9731">SQL + index scan</text><!--MD5=[83d29aa03f7910effed5f4b9168f8b29]
link PCLC to PG--><path d="M472.84,467.0263 C495.56,520.1763 526.79,593.2363 545.04,635.9263 " fill="none" id="PCLC-&gt;PG" style="stroke: #003366; stroke-width: 1.0;"/><polygon fill="#003366" points="547.1,640.7262,547.2313,630.8783,545.1304,636.1305,539.8781,634.0296,547.1,640.7262" style="stroke: #003366; stroke-width: 1.0;"/><text fill="#000000" font-family="sans-serif" font-size="13" lengthAdjust="spacingAndGlyphs" textLength="113" x="493" y="511.9731">SQL + index seek</text><!--MD5=[b232c37015d091a626660f11de21442e]
link PMAC to PG--><path d="M648.68,467.0263 C625.56,520.1763 593.78,593.2363 575.22,635.9263 " fill="none" id="PMAC-&gt;PG" style="stroke: #003366; stroke-width: 1.0;"/><polygon fill="#003366" points="573.13,640.7262,580.3944,634.0758,575.1288,636.1432,573.0615,630.8776,573.13,640.7262" style="stroke: #003366; stroke-width: 1.0;"/><text fill="#000000" font-family="sans-serif" font-size="13" lengthAdjust="spacingAndGlyphs" textLength="113" x="633" y="511.9731">SQL + index seek</text><!--MD5=[628877d09192f74d767c237bc5399b9f]
link PASC to PG--><path d="M841.19,460.6263 C815.13,480.0263 784.76,500.5563 755,515.9063 C718.65,534.6563 701.87,522.9762 668,545.9063 C632.5,569.9463 601.63,608.5363 582.09,636.4863 " fill="none" id="PASC-&gt;PG" style="stroke: #003366; stroke-width: 1.0;"/><polygon fill="#003366" points="579.05,640.8763,587.4654,635.7595,581.899,636.7674,580.8911,631.201,579.05,640.8763" style="stroke: #003366; stroke-width: 1.0;"/><text fill="#000000" font-family="sans-serif" font-size="13" lengthAdjust="spacingAndGlyphs" textLength="113" x="783" y="511.9731">SQL + index seek</text><!--MD5=[5a2bb1397682aaf23b55434d8e3eb29a]
@startuml C4_L4_DB_Query_Performance
title C4 Level 4 — Database Query Optimisation & Pagination\n(ASR-PERF-02, ASR-SEC-09)

skinparam backgroundColor #FAFAFA
skinparam classAttributeIconSize 0
skinparam class {
    BackgroundColor #DDEEFF
    BorderColor #336699
    ArrowColor #003366
    FontName Arial
}
skinparam note {
    BackgroundColor #FFFDE7
    BorderColor #F9A825
}
skinparam database {
    BackgroundColor #C5CAE9
    BorderColor #5C6BC0
}

package "Node.js API — Query Layer" #EEF4FF {

    class "CoursesController\nGET /api/courses" as CC {
        + list(req, res)
        - -
        page = Number(req.query.page) || 1
        limit = Number(req.query.limit) || 10
        skip = (page - 1) * limit
        CoursesService.findAll(skip, limit)
    }

    class "ClassesController\nGET /api/classes/teacher/:id" as CLC {
        + byTeacher(req, res)
        - -
        teacherId = req.params.id
        ClassesService.findByTeacher(teacherId)
        [uses @@index(teacherId)]
    }

    class "MaterialsController\nGET /api/materials/class/:id" as MAC {
        + byClass(req, res)
        - -
        classId = req.params.id
        MaterialsService.findByClass(classId)
        [uses @@index(classId)]
    }

    class "AssignmentsController\nGET /api/assignments/teacher/:id" as ASC {
        + byTeacher(req, res)
        - -
        createdBy = req.params.id
        AssignmentsService.findByTeacher(createdBy)
        [uses @@index(createdBy)]
    }
}

package "Prisma ORM Layer\n(Parameterized Queries — ASR-SEC-09)" #E8F5E9 {

    class "prisma.course\n.findMany()" as PCC {
        + findMany({skip, take, orderBy})
        - -
        SQL: SELECT * FROM "Course"
             ORDER BY "createdAt" DESC
             LIMIT $take OFFSET $skip
        → parameterized, no interpolation
    }

    class "prisma.class\n.findMany()\n@@index(teacherId)" as PCLC {
        + findMany({where: {teacherId}})
        - -
        SQL: SELECT * FROM "Class"
             WHERE "teacherId" = $1
        → B-tree index on "teacherId"
        → O(log n) lookup vs O(n) scan
    }

    class "prisma.material\n.findMany()\n@@index(classId)" as PMAC {
        + findMany({where: {classId}})
        - -
        SQL: SELECT * FROM "Material"
             WHERE "classId" = $1
        → B-tree index on "classId"
        → AND @@index(createdBy)
    }

    class "prisma.assignment\n.findMany()\n@@index(createdBy)" as PASC {
        + findMany({where: {createdBy}})
        - -
        SQL: SELECT * FROM "Assignment"
             WHERE "createdBy" = $1
        → B-tree index on "createdBy"
    }
}

database "PostgreSQL 16\n(postgres-data volume)" as PG {
}

note right of PG
  <b>Indexes (from schema.prisma)</b>:
  Class.@@index([teacherId])
  Assignment.@@index([createdBy])
  Feedback.@@index([createdBy])
  Material.@@index([classId])
  Material.@@index([createdBy])
  Enrollment.@@unique([userId, classId])
  Submission.@@unique([assignmentId, userId])

  <b>ASR-PERF-02</b>: < 2s on 10,000+ records
  Indexes reduce query time from O(n) → O(log n)
  Pagination (page/limit) caps row transfer

  <b>ASR-SEC-09</b>: 100% parameterized queries
  Prisma compiles all findMany/findUnique/create
  to prepared statements — no raw SQL interpolation
end note

CC - -> PCC : call
CLC - -> PCLC : call
MAC - -> PMAC : call
ASC - -> PASC : call
PCC - -> PG : SQL + index scan
PCLC - -> PG : SQL + index seek
PMAC - -> PG : SQL + index seek
PASC - -> PG : SQL + index seek
@enduml

PlantUML version 1.2020.02(Sun Mar 01 10:22:07 UTC 2020)
(GPL source distribution)
Java Runtime: OpenJDK Runtime Environment
JVM: OpenJDK 64-Bit Server VM
Java Version: 21.0.10+7-Ubuntu-124.04
Operating System: Linux
Default Encoding: UTF-8
Language: en
Country: US
--></g></svg>